<?xml version="1.0" encoding="UTF-8"?>
<svg xmlns="http://www.w3.org/2000/svg" xmlns:xlink="http://www.w3.org/1999/xlink" width="738.1pt" height="330.59pt" viewBox="0 0 738.1 330.59" version="1.1">
<defs>
<clipPath id="clip1">
  <path d="M 630 170 L 738.101563 170 L 738.101563 239 L 630 239 Z M 630 170 "/>
</clipPath>
<clipPath id="clip2">
  <path d="M 0 282 L 737 282 L 737 330.589844 L 0 330.589844 Z M 0 282 "/>
</clipPath>
<clipPath id="clip3">
  <path d="M 0 0 L 282 0 L 282 189 L 0 189 Z M 0 0 "/>
</clipPath>
<clipPath id="clip4">
  <path d="M 107.195313 14.832031 L 89.511719 18.398438 L 110.574219 23.65625 L 114.945313 38.304688 L 125.082031 27.410156 L 145.945313 33.234375 L 129.652344 20.277344 L 138 9.761719 L 119.121094 12.765625 L 103.421875 -0.00390625 Z M 26.921875 30.550781 L 0 35.980469 L 32.066406 43.988281 L 38.722656 66.285156 L 54.152344 49.703125 L 85.917969 58.566406 L 61.109375 38.839844 L 73.816406 22.832031 L 45.074219 27.40625 L 21.175781 7.964844 Z M 170.738281 22.804688 L 155.695313 25.839844 L 173.613281 30.3125 L 177.332031 42.773438 L 185.953125 33.507813 L 203.703125 38.460938 L 189.84375 27.4375 L 196.941406 18.492188 L 180.882813 21.046875 L 166.386719 10.253906 Z M 226.382813 51.816406 L 213.691406 54.441406 L 229.359375 57.8125 L 233.125 68.308594 L 238.679688 61 L 253.15625 64.375 L 241.851563 55.753906 L 245.421875 49.007813 L 233.324219 50.878906 L 221.820313 42.632813 Z M 23.800781 91.953125 L 5.714844 95.851563 L 27.257813 100.980469 L 31.726563 115.960938 L 42.09375 104.820313 L 63.433594 110.773438 L 46.769531 97.523438 L 55.304688 86.769531 L 35.996094 89.839844 L 19.902344 76.863281 Z M 261.285156 88.546875 L 251.371094 90.046875 L 263.269531 93.046875 L 267.035156 100.730469 L 271.003906 95.480469 L 281.910156 98.105469 L 273.183594 91.359375 L 276.359375 85.738281 L 266.242188 87.238281 L 257.320313 80.675781 Z M 65.648438 141.757813 L 51.722656 144.570313 L 68.371094 148.332031 L 71.8125 161.515625 L 79.867188 151.476563 L 97.910156 156.511719 L 84.574219 145.90625 L 91.40625 137.296875 L 74.621094 139.757813 L 61.742188 129.371094 Z M 120.515625 172.265625 L 107.824219 174.890625 L 123.492188 178.261719 L 127.261719 188.757813 L 132.8125 181.449219 L 147.289063 184.824219 L 135.984375 176.203125 L 139.554688 169.453125 L 127.460938 171.328125 L 115.957031 163.082031 Z M 187.515625 177.726563 L 178.34375 179.113281 L 189.351563 181.886719 L 192.839844 188.996094 L 196.507813 184.140625 L 206.601563 186.570313 L 198.527344 180.324219 L 201.460938 175.125 L 192.105469 176.511719 L 183.847656 170.441406 Z M 187.515625 177.726563 "/>
</clipPath>
<clipPath id="clip5">
  <path d="M 107.195313 14.832031 L 89.511719 18.398438 L 110.574219 23.65625 L 114.945313 38.304688 L 125.082031 27.410156 L 145.945313 33.234375 L 129.652344 20.277344 L 138 9.761719 L 119.121094 12.765625 L 103.421875 -0.00390625 Z M 26.921875 30.550781 L 0 35.980469 L 32.066406 43.988281 L 38.722656 66.285156 L 54.152344 49.703125 L 85.917969 58.566406 L 61.109375 38.839844 L 73.816406 22.832031 L 45.074219 27.40625 L 21.175781 7.964844 Z M 170.738281 22.804688 L 155.695313 25.839844 L 173.613281 30.3125 L 177.332031 42.773438 L 185.953125 33.507813 L 203.703125 38.460938 L 189.84375 27.4375 L 196.941406 18.492188 L 180.882813 21.046875 L 166.386719 10.253906 Z M 226.382813 51.816406 L 213.691406 54.441406 L 229.359375 57.8125 L 233.125 68.308594 L 238.679688 61 L 253.15625 64.375 L 241.851563 55.753906 L 245.421875 49.007813 L 233.324219 50.878906 L 221.820313 42.632813 Z M 23.800781 91.953125 L 5.714844 95.851563 L 27.257813 100.980469 L 31.726563 115.960938 L 42.09375 104.820313 L 63.433594 110.773438 L 46.769531 97.523438 L 55.304688 86.769531 L 35.996094 89.839844 L 19.902344 76.863281 Z M 261.285156 88.546875 L 251.371094 90.046875 L 263.269531 93.046875 L 267.035156 100.730469 L 271.003906 95.480469 L 281.910156 98.105469 L 273.183594 91.359375 L 276.359375 85.738281 L 266.242188 87.238281 L 257.320313 80.675781 Z M 65.648438 141.757813 L 51.722656 144.570313 L 68.371094 148.332031 L 71.8125 161.515625 L 79.867188 151.476563 L 97.910156 156.511719 L 84.574219 145.90625 L 91.40625 137.296875 L 74.621094 139.757813 L 61.742188 129.371094 Z M 120.515625 172.265625 L 107.824219 174.890625 L 123.492188 178.261719 L 127.261719 188.757813 L 132.8125 181.449219 L 147.289063 184.824219 L 135.984375 176.203125 L 139.554688 169.453125 L 127.460938 171.328125 L 115.957031 163.082031 Z M 187.515625 177.726563 L 178.34375 179.113281 L 189.351563 181.886719 L 192.839844 188.996094 L 196.507813 184.140625 L 206.601563 186.570313 L 198.527344 180.324219 L 201.460938 175.125 L 192.105469 176.511719 L 183.847656 170.441406 "/>
</clipPath>
<linearGradient id="linear0" gradientUnits="userSpaceOnUse" x1="-0.000000021638" y1="0" x2="1.000004" y2="0" gradientTransform="matrix(281.911,0,0,281.911,0.0000061,94.496)">
<stop offset="0" style="stop-color:rgb(93.331909%,49.803162%,0%);stop-opacity:1;"/>
<stop offset="0.03125" style="stop-color:rgb(93.336487%,49.833679%,0.0595093%);stop-opacity:1;"/>
<stop offset="0.0351562" style="stop-color:rgb(93.360901%,49.97406%,0.328064%);stop-opacity:1;"/>
<stop offset="0.0390625" style="stop-color:rgb(93.379211%,50.082397%,0.537109%);stop-opacity:1;"/>
<stop offset="0.0429688" style="stop-color:rgb(93.397522%,50.190735%,0.746155%);stop-opacity:1;"/>
<stop offset="0.046875" style="stop-color:rgb(93.415833%,50.299072%,0.9552%);stop-opacity:1;"/>
<stop offset="0.0507813" style="stop-color:rgb(93.432617%,50.40741%,1.16272%);stop-opacity:1;"/>
<stop offset="0.0546875" style="stop-color:rgb(93.450928%,50.515747%,1.371765%);stop-opacity:1;"/>
<stop offset="0.0585938" style="stop-color:rgb(93.469238%,50.624084%,1.580811%);stop-opacity:1;"/>
<stop offset="0.0625" style="stop-color:rgb(93.487549%,50.733948%,1.789856%);stop-opacity:1;"/>
<stop offset="0.0664062" style="stop-color:rgb(93.505859%,50.842285%,1.997375%);stop-opacity:1;"/>
<stop offset="0.0703125" style="stop-color:rgb(93.52417%,50.950623%,2.206421%);stop-opacity:1;"/>
<stop offset="0.0742187" style="stop-color:rgb(93.540955%,51.05896%,2.415466%);stop-opacity:1;"/>
<stop offset="0.078125" style="stop-color:rgb(93.559265%,51.167297%,2.624512%);stop-opacity:1;"/>
<stop offset="0.0820312" style="stop-color:rgb(93.577576%,51.275635%,2.832031%);stop-opacity:1;"/>
<stop offset="0.0859375" style="stop-color:rgb(93.595886%,51.383972%,3.041077%);stop-opacity:1;"/>
<stop offset="0.0898438" style="stop-color:rgb(93.614197%,51.49231%,3.250122%);stop-opacity:1;"/>
<stop offset="0.09375" style="stop-color:rgb(93.632507%,51.600647%,3.459167%);stop-opacity:1;"/>
<stop offset="0.0976563" style="stop-color:rgb(93.649292%,51.708984%,3.666687%);stop-opacity:1;"/>
<stop offset="0.101563" style="stop-color:rgb(93.667603%,51.817322%,3.875732%);stop-opacity:1;"/>
<stop offset="0.105469" style="stop-color:rgb(93.685913%,51.925659%,4.084778%);stop-opacity:1;"/>
<stop offset="0.109375" style="stop-color:rgb(93.704224%,52.033997%,4.293823%);stop-opacity:1;"/>
<stop offset="0.113281" style="stop-color:rgb(93.722534%,52.142334%,4.501343%);stop-opacity:1;"/>
<stop offset="0.117188" style="stop-color:rgb(93.740845%,52.252197%,4.710388%);stop-opacity:1;"/>
<stop offset="0.121094" style="stop-color:rgb(93.759155%,52.360535%,4.919434%);stop-opacity:1;"/>
<stop offset="0.125" style="stop-color:rgb(93.777466%,52.468872%,5.128479%);stop-opacity:1;"/>
<stop offset="0.128906" style="stop-color:rgb(93.79425%,52.577209%,5.335999%);stop-opacity:1;"/>
<stop offset="0.132812" style="stop-color:rgb(93.812561%,52.685547%,5.545044%);stop-opacity:1;"/>
<stop offset="0.136719" style="stop-color:rgb(93.830872%,52.793884%,5.754089%);stop-opacity:1;"/>
<stop offset="0.140625" style="stop-color:rgb(93.849182%,52.902222%,5.963135%);stop-opacity:1;"/>
<stop offset="0.144531" style="stop-color:rgb(93.867493%,53.010559%,6.170654%);stop-opacity:1;"/>
<stop offset="0.148437" style="stop-color:rgb(93.885803%,53.118896%,6.3797%);stop-opacity:1;"/>
<stop offset="0.152344" style="stop-color:rgb(93.902588%,53.227234%,6.588745%);stop-opacity:1;"/>
<stop offset="0.15625" style="stop-color:rgb(93.920898%,53.335571%,6.797791%);stop-opacity:1;"/>
<stop offset="0.160156" style="stop-color:rgb(93.939209%,53.443909%,7.00531%);stop-opacity:1;"/>
<stop offset="0.164062" style="stop-color:rgb(93.95752%,53.552246%,7.214355%);stop-opacity:1;"/>
<stop offset="0.167969" style="stop-color:rgb(93.97583%,53.660583%,7.423401%);stop-opacity:1;"/>
<stop offset="0.171875" style="stop-color:rgb(93.994141%,53.768921%,7.632446%);stop-opacity:1;"/>
<stop offset="0.175781" style="stop-color:rgb(94.010925%,53.877258%,7.839966%);stop-opacity:1;"/>
<stop offset="0.179687" style="stop-color:rgb(94.029236%,53.987122%,8.049011%);stop-opacity:1;"/>
<stop offset="0.183594" style="stop-color:rgb(94.047546%,54.095459%,8.256531%);stop-opacity:1;"/>
<stop offset="0.1875" style="stop-color:rgb(94.065857%,54.203796%,8.465576%);stop-opacity:1;"/>
<stop offset="0.191406" style="stop-color:rgb(94.084167%,54.312134%,8.674622%);stop-opacity:1;"/>
<stop offset="0.195313" style="stop-color:rgb(94.102478%,54.420471%,8.883667%);stop-opacity:1;"/>
<stop offset="0.199219" style="stop-color:rgb(94.119263%,54.528809%,9.091187%);stop-opacity:1;"/>
<stop offset="0.203125" style="stop-color:rgb(94.137573%,54.637146%,9.300232%);stop-opacity:1;"/>
<stop offset="0.207031" style="stop-color:rgb(94.155884%,54.745483%,9.509277%);stop-opacity:1;"/>
<stop offset="0.210938" style="stop-color:rgb(94.174194%,54.853821%,9.718323%);stop-opacity:1;"/>
<stop offset="0.214844" style="stop-color:rgb(94.192505%,54.962158%,9.925842%);stop-opacity:1;"/>
<stop offset="0.21875" style="stop-color:rgb(94.210815%,55.070496%,10.134888%);stop-opacity:1;"/>
<stop offset="0.222656" style="stop-color:rgb(94.2276%,55.178833%,10.343933%);stop-opacity:1;"/>
<stop offset="0.226563" style="stop-color:rgb(94.245911%,55.28717%,10.552979%);stop-opacity:1;"/>
<stop offset="0.230469" style="stop-color:rgb(94.264221%,55.395508%,10.760498%);stop-opacity:1;"/>
<stop offset="0.234375" style="stop-color:rgb(94.282532%,55.505371%,10.969543%);stop-opacity:1;"/>
<stop offset="0.238281" style="stop-color:rgb(94.300842%,55.613708%,11.178589%);stop-opacity:1;"/>
<stop offset="0.242188" style="stop-color:rgb(94.319153%,55.722046%,11.387634%);stop-opacity:1;"/>
<stop offset="0.246094" style="stop-color:rgb(94.337463%,55.830383%,11.595154%);stop-opacity:1;"/>
<stop offset="0.25" style="stop-color:rgb(94.355774%,55.938721%,11.804199%);stop-opacity:1;"/>
<stop offset="0.253906" style="stop-color:rgb(94.372559%,56.047058%,12.013245%);stop-opacity:1;"/>
<stop offset="0.257813" style="stop-color:rgb(94.390869%,56.155396%,12.22229%);stop-opacity:1;"/>
<stop offset="0.261719" style="stop-color:rgb(94.40918%,56.263733%,12.42981%);stop-opacity:1;"/>
<stop offset="0.265625" style="stop-color:rgb(94.42749%,56.37207%,12.638855%);stop-opacity:1;"/>
<stop offset="0.269531" style="stop-color:rgb(94.445801%,56.480408%,12.8479%);stop-opacity:1;"/>
<stop offset="0.273437" style="stop-color:rgb(94.464111%,56.588745%,13.056946%);stop-opacity:1;"/>
<stop offset="0.277344" style="stop-color:rgb(94.480896%,56.697083%,13.264465%);stop-opacity:1;"/>
<stop offset="0.28125" style="stop-color:rgb(94.499207%,56.80542%,13.473511%);stop-opacity:1;"/>
<stop offset="0.285156" style="stop-color:rgb(94.517517%,56.913757%,13.682556%);stop-opacity:1;"/>
<stop offset="0.289062" style="stop-color:rgb(94.535828%,57.022095%,13.891602%);stop-opacity:1;"/>
<stop offset="0.292969" style="stop-color:rgb(94.554138%,57.130432%,14.099121%);stop-opacity:1;"/>
<stop offset="0.296875" style="stop-color:rgb(94.572449%,57.240295%,14.308167%);stop-opacity:1;"/>
<stop offset="0.300781" style="stop-color:rgb(94.589233%,57.348633%,14.517212%);stop-opacity:1;"/>
<stop offset="0.304687" style="stop-color:rgb(94.607544%,57.45697%,14.726257%);stop-opacity:1;"/>
<stop offset="0.308594" style="stop-color:rgb(94.625854%,57.565308%,14.933777%);stop-opacity:1;"/>
<stop offset="0.3125" style="stop-color:rgb(94.644165%,57.673645%,15.142822%);stop-opacity:1;"/>
<stop offset="0.316406" style="stop-color:rgb(94.662476%,57.781982%,15.351868%);stop-opacity:1;"/>
<stop offset="0.320312" style="stop-color:rgb(94.680786%,57.89032%,15.560913%);stop-opacity:1;"/>
<stop offset="0.324219" style="stop-color:rgb(94.697571%,57.998657%,15.768433%);stop-opacity:1;"/>
<stop offset="0.328125" style="stop-color:rgb(94.715881%,58.106995%,15.977478%);stop-opacity:1;"/>
<stop offset="0.332031" style="stop-color:rgb(94.734192%,58.215332%,16.186523%);stop-opacity:1;"/>
<stop offset="0.335937" style="stop-color:rgb(94.752502%,58.323669%,16.395569%);stop-opacity:1;"/>
<stop offset="0.339844" style="stop-color:rgb(94.770813%,58.432007%,16.603088%);stop-opacity:1;"/>
<stop offset="0.34375" style="stop-color:rgb(94.789124%,58.540344%,16.812134%);stop-opacity:1;"/>
<stop offset="0.347656" style="stop-color:rgb(94.807434%,58.648682%,17.021179%);stop-opacity:1;"/>
<stop offset="0.351562" style="stop-color:rgb(94.825745%,58.758545%,17.230225%);stop-opacity:1;"/>
<stop offset="0.355469" style="stop-color:rgb(94.842529%,58.866882%,17.437744%);stop-opacity:1;"/>
<stop offset="0.359375" style="stop-color:rgb(94.86084%,58.97522%,17.64679%);stop-opacity:1;"/>
<stop offset="0.363281" style="stop-color:rgb(94.87915%,59.083557%,17.855835%);stop-opacity:1;"/>
<stop offset="0.367187" style="stop-color:rgb(94.897461%,59.191895%,18.06488%);stop-opacity:1;"/>
<stop offset="0.371094" style="stop-color:rgb(94.915771%,59.300232%,18.2724%);stop-opacity:1;"/>
<stop offset="0.375" style="stop-color:rgb(94.934082%,59.408569%,18.481445%);stop-opacity:1;"/>
<stop offset="0.378906" style="stop-color:rgb(94.950867%,59.516907%,18.690491%);stop-opacity:1;"/>
<stop offset="0.382813" style="stop-color:rgb(94.969177%,59.625244%,18.899536%);stop-opacity:1;"/>
<stop offset="0.386719" style="stop-color:rgb(94.987488%,59.733582%,19.107056%);stop-opacity:1;"/>
<stop offset="0.390625" style="stop-color:rgb(95.005798%,59.841919%,19.316101%);stop-opacity:1;"/>
<stop offset="0.394531" style="stop-color:rgb(95.024109%,59.950256%,19.525146%);stop-opacity:1;"/>
<stop offset="0.398438" style="stop-color:rgb(95.042419%,60.058594%,19.734192%);stop-opacity:1;"/>
<stop offset="0.402344" style="stop-color:rgb(95.059204%,60.166931%,19.941711%);stop-opacity:1;"/>
<stop offset="0.40625" style="stop-color:rgb(95.077515%,60.275269%,20.150757%);stop-opacity:1;"/>
<stop offset="0.410156" style="stop-color:rgb(95.095825%,60.383606%,20.359802%);stop-opacity:1;"/>
<stop offset="0.414063" style="stop-color:rgb(95.114136%,60.493469%,20.568848%);stop-opacity:1;"/>
<stop offset="0.417969" style="stop-color:rgb(95.132446%,60.601807%,20.776367%);stop-opacity:1;"/>
<stop offset="0.421875" style="stop-color:rgb(95.150757%,60.710144%,20.985413%);stop-opacity:1;"/>
<stop offset="0.425781" style="stop-color:rgb(95.167542%,60.818481%,21.194458%);stop-opacity:1;"/>
<stop offset="0.429688" style="stop-color:rgb(95.185852%,60.926819%,21.403503%);stop-opacity:1;"/>
<stop offset="0.433594" style="stop-color:rgb(95.204163%,61.035156%,21.611023%);stop-opacity:1;"/>
<stop offset="0.4375" style="stop-color:rgb(95.222473%,61.143494%,21.820068%);stop-opacity:1;"/>
<stop offset="0.441406" style="stop-color:rgb(95.240784%,61.251831%,22.029114%);stop-opacity:1;"/>
<stop offset="0.445313" style="stop-color:rgb(95.259094%,61.360168%,22.238159%);stop-opacity:1;"/>
<stop offset="0.449219" style="stop-color:rgb(95.275879%,61.468506%,22.445679%);stop-opacity:1;"/>
<stop offset="0.453125" style="stop-color:rgb(95.294189%,61.576843%,22.654724%);stop-opacity:1;"/>
<stop offset="0.457031" style="stop-color:rgb(95.3125%,61.685181%,22.86377%);stop-opacity:1;"/>
<stop offset="0.460938" style="stop-color:rgb(95.330811%,61.793518%,23.072815%);stop-opacity:1;"/>
<stop offset="0.464844" style="stop-color:rgb(95.349121%,61.901855%,23.280334%);stop-opacity:1;"/>
<stop offset="0.46875" style="stop-color:rgb(95.367432%,62.010193%,23.48938%);stop-opacity:1;"/>
<stop offset="0.472656" style="stop-color:rgb(95.385742%,62.11853%,23.698425%);stop-opacity:1;"/>
<stop offset="0.476563" style="stop-color:rgb(95.404053%,62.228394%,23.907471%);stop-opacity:1;"/>
<stop offset="0.480469" style="stop-color:rgb(95.420837%,62.336731%,24.11499%);stop-opacity:1;"/>
<stop offset="0.484375" style="stop-color:rgb(95.439148%,62.445068%,24.324036%);stop-opacity:1;"/>
<stop offset="0.488281" style="stop-color:rgb(95.457458%,62.553406%,24.533081%);stop-opacity:1;"/>
<stop offset="0.492188" style="stop-color:rgb(95.475769%,62.661743%,24.742126%);stop-opacity:1;"/>
<stop offset="0.496094" style="stop-color:rgb(95.49408%,62.770081%,24.949646%);stop-opacity:1;"/>
<stop offset="0.5" style="stop-color:rgb(95.51239%,62.878418%,25.158691%);stop-opacity:1;"/>
<stop offset="0.503906" style="stop-color:rgb(95.529175%,62.986755%,25.367737%);stop-opacity:1;"/>
<stop offset="0.507813" style="stop-color:rgb(95.547485%,63.095093%,25.576782%);stop-opacity:1;"/>
<stop offset="0.511719" style="stop-color:rgb(95.565796%,63.20343%,25.784302%);stop-opacity:1;"/>
<stop offset="0.515625" style="stop-color:rgb(95.584106%,63.311768%,25.993347%);stop-opacity:1;"/>
<stop offset="0.519531" style="stop-color:rgb(95.602417%,63.420105%,26.202393%);stop-opacity:1;"/>
<stop offset="0.523438" style="stop-color:rgb(95.620728%,63.528442%,26.411438%);stop-opacity:1;"/>
<stop offset="0.527344" style="stop-color:rgb(95.637512%,63.63678%,26.618958%);stop-opacity:1;"/>
<stop offset="0.53125" style="stop-color:rgb(95.655823%,63.746643%,26.828003%);stop-opacity:1;"/>
<stop offset="0.535156" style="stop-color:rgb(95.674133%,63.85498%,27.037048%);stop-opacity:1;"/>
<stop offset="0.539062" style="stop-color:rgb(95.692444%,63.963318%,27.246094%);stop-opacity:1;"/>
<stop offset="0.542969" style="stop-color:rgb(95.710754%,64.071655%,27.453613%);stop-opacity:1;"/>
<stop offset="0.546875" style="stop-color:rgb(95.729065%,64.179993%,27.662659%);stop-opacity:1;"/>
<stop offset="0.550781" style="stop-color:rgb(95.74585%,64.28833%,27.871704%);stop-opacity:1;"/>
<stop offset="0.554688" style="stop-color:rgb(95.76416%,64.396667%,28.08075%);stop-opacity:1;"/>
<stop offset="0.558594" style="stop-color:rgb(95.782471%,64.505005%,28.288269%);stop-opacity:1;"/>
<stop offset="0.5625" style="stop-color:rgb(95.800781%,64.613342%,28.497314%);stop-opacity:1;"/>
<stop offset="0.566406" style="stop-color:rgb(95.819092%,64.72168%,28.70636%);stop-opacity:1;"/>
<stop offset="0.570312" style="stop-color:rgb(95.837402%,64.830017%,28.915405%);stop-opacity:1;"/>
<stop offset="0.574219" style="stop-color:rgb(95.854187%,64.938354%,29.122925%);stop-opacity:1;"/>
<stop offset="0.578125" style="stop-color:rgb(95.872498%,65.046692%,29.33197%);stop-opacity:1;"/>
<stop offset="0.582031" style="stop-color:rgb(95.890808%,65.155029%,29.541016%);stop-opacity:1;"/>
<stop offset="0.585938" style="stop-color:rgb(95.909119%,65.263367%,29.750061%);stop-opacity:1;"/>
<stop offset="0.589844" style="stop-color:rgb(95.927429%,65.371704%,29.957581%);stop-opacity:1;"/>
<stop offset="0.59375" style="stop-color:rgb(95.94574%,65.481567%,30.166626%);stop-opacity:1;"/>
<stop offset="0.597656" style="stop-color:rgb(95.96405%,65.589905%,30.375671%);stop-opacity:1;"/>
<stop offset="0.601562" style="stop-color:rgb(95.982361%,65.698242%,30.584717%);stop-opacity:1;"/>
<stop offset="0.605469" style="stop-color:rgb(95.999146%,65.80658%,30.792236%);stop-opacity:1;"/>
<stop offset="0.609375" style="stop-color:rgb(96.017456%,65.914917%,31.001282%);stop-opacity:1;"/>
<stop offset="0.613281" style="stop-color:rgb(96.035767%,66.023254%,31.210327%);stop-opacity:1;"/>
<stop offset="0.617188" style="stop-color:rgb(96.054077%,66.131592%,31.419373%);stop-opacity:1;"/>
<stop offset="0.621094" style="stop-color:rgb(96.072388%,66.239929%,31.626892%);stop-opacity:1;"/>
<stop offset="0.625" style="stop-color:rgb(96.090698%,66.348267%,31.835938%);stop-opacity:1;"/>
<stop offset="0.628906" style="stop-color:rgb(96.107483%,66.456604%,32.044983%);stop-opacity:1;"/>
<stop offset="0.632812" style="stop-color:rgb(96.125793%,66.564941%,32.254028%);stop-opacity:1;"/>
<stop offset="0.636719" style="stop-color:rgb(96.144104%,66.673279%,32.461548%);stop-opacity:1;"/>
<stop offset="0.640625" style="stop-color:rgb(96.162415%,66.781616%,32.670593%);stop-opacity:1;"/>
<stop offset="0.644531" style="stop-color:rgb(96.180725%,66.889954%,32.879639%);stop-opacity:1;"/>
<stop offset="0.648438" style="stop-color:rgb(96.199036%,66.999817%,33.088684%);stop-opacity:1;"/>
<stop offset="0.652344" style="stop-color:rgb(96.21582%,67.108154%,33.296204%);stop-opacity:1;"/>
<stop offset="0.65625" style="stop-color:rgb(96.234131%,67.216492%,33.505249%);stop-opacity:1;"/>
<stop offset="0.660156" style="stop-color:rgb(96.252441%,67.324829%,33.714294%);stop-opacity:1;"/>
<stop offset="0.664062" style="stop-color:rgb(96.270752%,67.433167%,33.92334%);stop-opacity:1;"/>
<stop offset="0.667969" style="stop-color:rgb(96.289063%,67.541504%,34.130859%);stop-opacity:1;"/>
<stop offset="0.671875" style="stop-color:rgb(96.307373%,67.649841%,34.339905%);stop-opacity:1;"/>
<stop offset="0.675781" style="stop-color:rgb(96.324158%,67.758179%,34.54895%);stop-opacity:1;"/>
<stop offset="0.679688" style="stop-color:rgb(96.342468%,67.866516%,34.757996%);stop-opacity:1;"/>
<stop offset="0.683594" style="stop-color:rgb(96.360779%,67.974854%,34.965515%);stop-opacity:1;"/>
<stop offset="0.6875" style="stop-color:rgb(96.379089%,68.083191%,35.174561%);stop-opacity:1;"/>
<stop offset="0.691406" style="stop-color:rgb(96.3974%,68.191528%,35.383606%);stop-opacity:1;"/>
<stop offset="0.695312" style="stop-color:rgb(96.41571%,68.299866%,35.592651%);stop-opacity:1;"/>
<stop offset="0.699219" style="stop-color:rgb(96.434021%,68.408203%,35.800171%);stop-opacity:1;"/>
<stop offset="0.703125" style="stop-color:rgb(96.452332%,68.516541%,36.009216%);stop-opacity:1;"/>
<stop offset="0.707031" style="stop-color:rgb(96.469116%,68.624878%,36.218262%);stop-opacity:1;"/>
<stop offset="0.710938" style="stop-color:rgb(96.487427%,68.734741%,36.427307%);stop-opacity:1;"/>
<stop offset="0.714844" style="stop-color:rgb(96.505737%,68.843079%,36.634827%);stop-opacity:1;"/>
<stop offset="0.71875" style="stop-color:rgb(96.524048%,68.951416%,36.843872%);stop-opacity:1;"/>
<stop offset="0.722656" style="stop-color:rgb(96.542358%,69.059753%,37.052917%);stop-opacity:1;"/>
<stop offset="0.726562" style="stop-color:rgb(96.560669%,69.168091%,37.261963%);stop-opacity:1;"/>
<stop offset="0.730469" style="stop-color:rgb(96.577454%,69.276428%,37.469482%);stop-opacity:1;"/>
<stop offset="0.734375" style="stop-color:rgb(96.595764%,69.384766%,37.678528%);stop-opacity:1;"/>
<stop offset="0.738281" style="stop-color:rgb(96.614075%,69.493103%,37.887573%);stop-opacity:1;"/>
<stop offset="0.742188" style="stop-color:rgb(96.632385%,69.60144%,38.096619%);stop-opacity:1;"/>
<stop offset="0.746094" style="stop-color:rgb(96.650696%,69.709778%,38.304138%);stop-opacity:1;"/>
<stop offset="0.75" style="stop-color:rgb(96.669006%,69.818115%,38.513184%);stop-opacity:1;"/>
<stop offset="0.753906" style="stop-color:rgb(96.685791%,69.926453%,38.722229%);stop-opacity:1;"/>
<stop offset="0.757812" style="stop-color:rgb(96.704102%,70.03479%,38.931274%);stop-opacity:1;"/>
<stop offset="0.761719" style="stop-color:rgb(96.722412%,70.143127%,39.138794%);stop-opacity:1;"/>
<stop offset="0.765625" style="stop-color:rgb(96.740723%,70.252991%,39.347839%);stop-opacity:1;"/>
<stop offset="0.769531" style="stop-color:rgb(96.759033%,70.361328%,39.556885%);stop-opacity:1;"/>
<stop offset="0.773438" style="stop-color:rgb(96.777344%,70.469666%,39.76593%);stop-opacity:1;"/>
<stop offset="0.777344" style="stop-color:rgb(96.794128%,70.578003%,39.97345%);stop-opacity:1;"/>
<stop offset="0.78125" style="stop-color:rgb(96.812439%,70.68634%,40.182495%);stop-opacity:1;"/>
<stop offset="0.785156" style="stop-color:rgb(96.83075%,70.794678%,40.391541%);stop-opacity:1;"/>
<stop offset="0.789062" style="stop-color:rgb(96.84906%,70.903015%,40.600586%);stop-opacity:1;"/>
<stop offset="0.792969" style="stop-color:rgb(96.867371%,71.011353%,40.808105%);stop-opacity:1;"/>
<stop offset="0.796875" style="stop-color:rgb(96.885681%,71.11969%,41.017151%);stop-opacity:1;"/>
<stop offset="0.800781" style="stop-color:rgb(96.902466%,71.228027%,41.226196%);stop-opacity:1;"/>
<stop offset="0.804688" style="stop-color:rgb(96.920776%,71.336365%,41.435242%);stop-opacity:1;"/>
<stop offset="0.808594" style="stop-color:rgb(96.939087%,71.444702%,41.642761%);stop-opacity:1;"/>
<stop offset="0.8125" style="stop-color:rgb(96.957397%,71.55304%,41.851807%);stop-opacity:1;"/>
<stop offset="0.816406" style="stop-color:rgb(96.975708%,71.661377%,42.060852%);stop-opacity:1;"/>
<stop offset="0.820312" style="stop-color:rgb(96.994019%,71.769714%,42.269897%);stop-opacity:1;"/>
<stop offset="0.824219" style="stop-color:rgb(97.012329%,71.878052%,42.477417%);stop-opacity:1;"/>
<stop offset="0.828125" style="stop-color:rgb(97.03064%,71.987915%,42.686462%);stop-opacity:1;"/>
<stop offset="0.832031" style="stop-color:rgb(97.047424%,72.096252%,42.895508%);stop-opacity:1;"/>
<stop offset="0.835938" style="stop-color:rgb(97.065735%,72.20459%,43.104553%);stop-opacity:1;"/>
<stop offset="0.839844" style="stop-color:rgb(97.084045%,72.312927%,43.312073%);stop-opacity:1;"/>
<stop offset="0.84375" style="stop-color:rgb(97.102356%,72.421265%,43.521118%);stop-opacity:1;"/>
<stop offset="0.847656" style="stop-color:rgb(97.120667%,72.529602%,43.730164%);stop-opacity:1;"/>
<stop offset="0.851562" style="stop-color:rgb(97.138977%,72.637939%,43.939209%);stop-opacity:1;"/>
<stop offset="0.855469" style="stop-color:rgb(97.155762%,72.746277%,44.146729%);stop-opacity:1;"/>
<stop offset="0.859375" style="stop-color:rgb(97.174072%,72.854614%,44.355774%);stop-opacity:1;"/>
<stop offset="0.863281" style="stop-color:rgb(97.192383%,72.962952%,44.564819%);stop-opacity:1;"/>
<stop offset="0.867188" style="stop-color:rgb(97.210693%,73.071289%,44.773865%);stop-opacity:1;"/>
<stop offset="0.871094" style="stop-color:rgb(97.229004%,73.179626%,44.981384%);stop-opacity:1;"/>
<stop offset="0.875" style="stop-color:rgb(97.247314%,73.287964%,45.19043%);stop-opacity:1;"/>
<stop offset="0.878906" style="stop-color:rgb(97.264099%,73.396301%,45.399475%);stop-opacity:1;"/>
<stop offset="0.882812" style="stop-color:rgb(97.28241%,73.506165%,45.608521%);stop-opacity:1;"/>
<stop offset="0.886719" style="stop-color:rgb(97.30072%,73.614502%,45.81604%);stop-opacity:1;"/>
<stop offset="0.890625" style="stop-color:rgb(97.319031%,73.722839%,46.025085%);stop-opacity:1;"/>
<stop offset="0.894531" style="stop-color:rgb(97.337341%,73.831177%,46.234131%);stop-opacity:1;"/>
<stop offset="0.898438" style="stop-color:rgb(97.355652%,73.939514%,46.443176%);stop-opacity:1;"/>
<stop offset="0.902344" style="stop-color:rgb(97.372437%,74.047852%,46.650696%);stop-opacity:1;"/>
<stop offset="0.90625" style="stop-color:rgb(97.390747%,74.156189%,46.859741%);stop-opacity:1;"/>
<stop offset="0.910156" style="stop-color:rgb(97.409058%,74.264526%,47.068787%);stop-opacity:1;"/>
<stop offset="0.914062" style="stop-color:rgb(97.427368%,74.372864%,47.277832%);stop-opacity:1;"/>
<stop offset="0.917969" style="stop-color:rgb(97.445679%,74.481201%,47.485352%);stop-opacity:1;"/>
<stop offset="0.921875" style="stop-color:rgb(97.463989%,74.589539%,47.694397%);stop-opacity:1;"/>
<stop offset="0.925781" style="stop-color:rgb(97.4823%,74.697876%,47.903442%);stop-opacity:1;"/>
<stop offset="0.929688" style="stop-color:rgb(97.50061%,74.806213%,48.112488%);stop-opacity:1;"/>
<stop offset="0.933594" style="stop-color:rgb(97.517395%,74.914551%,48.320007%);stop-opacity:1;"/>
<stop offset="0.9375" style="stop-color:rgb(97.535706%,75.022888%,48.529053%);stop-opacity:1;"/>
<stop offset="0.941406" style="stop-color:rgb(97.554016%,75.131226%,48.738098%);stop-opacity:1;"/>
<stop offset="0.945312" style="stop-color:rgb(97.572327%,75.241089%,48.947144%);stop-opacity:1;"/>
<stop offset="0.949219" style="stop-color:rgb(97.590637%,75.349426%,49.154663%);stop-opacity:1;"/>
<stop offset="0.953125" style="stop-color:rgb(97.608948%,75.457764%,49.363708%);stop-opacity:1;"/>
<stop offset="0.957031" style="stop-color:rgb(97.625732%,75.566101%,49.572754%);stop-opacity:1;"/>
<stop offset="0.960938" style="stop-color:rgb(97.644043%,75.674438%,49.781799%);stop-opacity:1;"/>
<stop offset="0.96875" style="stop-color:rgb(97.645569%,75.679016%,49.79248%);stop-opacity:1;"/>
<stop offset="1" style="stop-color:rgb(97.647095%,75.68512%,49.803162%);stop-opacity:1;"/>
</linearGradient>
</defs>
<g id="surface1">
<g clip-path="url(#clip1)" clip-rule="nonzero">
<path style=" stroke:none;fill-rule:nonzero;fill:rgb(0%,26.660156%,58.006287%);fill-opacity:1;" d="M 630.597656 238.0625 L 738.101563 238.0625 L 738.101563 170.335938 L 630.597656 170.335938 Z M 630.597656 238.0625 "/>
</g>
<path style=" stroke:none;fill-rule:nonzero;fill:rgb(100%,92.96875%,0%);fill-opacity:1;" d="M 669.898438 187.914063 L 672.601563 185.996094 L 675.304688 187.914063 L 674.207031 184.890625 L 676.976563 183.054688 L 673.59375 183.054688 L 672.601563 180.054688 L 671.609375 183.054688 L 668.226563 183.054688 L 670.996094 184.890625 Z M 660.984375 196.175781 L 663.6875 194.253906 L 666.390625 196.175781 L 665.292969 193.148438 L 668.0625 191.3125 L 664.675781 191.3125 L 663.6875 188.3125 L 662.695313 191.3125 L 659.3125 191.3125 L 662.082031 193.148438 Z M 660.398438 205.765625 L 663.101563 207.683594 L 662.003906 204.660156 L 664.773438 202.824219 L 661.390625 202.824219 L 660.398438 199.820313 L 659.40625 202.824219 L 656.023438 202.824219 L 658.792969 204.660156 L 657.695313 207.683594 Z M 668.269531 214.058594 L 664.882813 214.058594 L 663.894531 211.054688 L 662.902344 214.058594 L 659.519531 214.058594 L 662.289063 215.894531 L 661.191406 218.914063 L 663.894531 216.996094 L 666.597656 218.914063 L 665.5 215.894531 Z M 673.625 222.480469 L 672.632813 219.476563 L 671.640625 222.480469 L 668.257813 222.480469 L 671.027344 224.316406 L 669.929688 227.339844 L 672.632813 225.421875 L 675.335938 227.339844 L 674.238281 224.316406 L 677.007813 222.480469 Z M 693.777344 187.914063 L 696.480469 185.996094 L 699.183594 187.914063 L 698.085938 184.890625 L 700.859375 183.054688 L 697.472656 183.054688 L 696.480469 180.054688 L 695.492188 183.054688 L 692.105469 183.054688 L 694.878906 184.890625 Z M 702.695313 196.175781 L 705.398438 194.253906 L 708.101563 196.175781 L 707.003906 193.148438 L 709.773438 191.3125 L 706.386719 191.3125 L 705.398438 188.3125 L 704.40625 191.3125 L 701.019531 191.3125 L 703.792969 193.148438 Z M 706.179688 214.058594 L 705.191406 211.054688 L 704.199219 214.058594 L 700.8125 214.058594 L 703.585938 215.894531 L 702.488281 218.914063 L 705.191406 216.996094 L 707.894531 218.914063 L 706.796875 215.894531 L 709.566406 214.058594 Z M 713.058594 202.824219 L 709.675781 202.824219 L 708.683594 199.820313 L 707.695313 202.824219 L 704.308594 202.824219 L 707.078125 204.660156 L 705.980469 207.683594 L 708.683594 205.765625 L 711.386719 207.683594 L 710.289063 204.660156 Z M 697.441406 222.480469 L 696.449219 219.476563 L 695.460938 222.480469 L 692.074219 222.480469 L 694.84375 224.316406 L 693.746094 227.339844 L 696.449219 225.421875 L 699.152344 227.339844 L 698.054688 224.316406 L 700.824219 222.480469 Z M 685.554688 225.617188 L 684.566406 222.613281 L 683.574219 225.617188 L 680.1875 225.617188 L 682.960938 227.453125 L 681.863281 230.476563 L 684.566406 228.558594 L 687.269531 230.476563 L 686.171875 227.453125 L 688.941406 225.617188 Z M 681.59375 184.675781 L 684.296875 182.757813 L 687 184.675781 L 685.902344 181.652344 L 688.671875 179.816406 L 685.289063 179.816406 L 684.296875 176.8125 L 683.304688 179.816406 L 679.921875 179.816406 L 682.691406 181.652344 "/>
<g clip-path="url(#clip2)" clip-rule="nonzero">
<path style=" stroke:none;fill-rule:nonzero;fill:rgb(0%,26.660156%,58.006287%);fill-opacity:1;" d="M 731.757813 293.070313 L 724.378906 314.75 L 717.054688 293.070313 L 711.84375 293.070313 L 721.953125 320.464844 C 721.714844 321.058594 721.332031 321.96875 720.808594 323.191406 C 720.28125 324.414063 719.972656 325.09375 719.890625 325.226563 C 719.617188 325.621094 719.28125 325.957031 718.882813 326.230469 C 718.484375 326.503906 717.859375 326.640625 717.007813 326.640625 C 716.738281 326.640625 716.421875 326.613281 716.066406 326.566406 C 715.710938 326.515625 715.132813 326.382813 714.335938 326.167969 L 714.335938 330.242188 C 714.84375 330.375 715.273438 330.464844 715.621094 330.515625 C 715.972656 330.5625 716.46875 330.589844 717.113281 330.589844 C 719.765625 330.589844 721.636719 329.84375 722.726563 328.355469 C 723.8125 326.867188 725.683594 322.726563 728.335938 315.941406 C 729.457031 313.058594 730.855469 309.332031 732.523438 304.757813 C 734.753906 298.675781 736.1875 294.777344 736.835938 293.070313 Z M 705.707031 285.644531 L 701.0625 285.644531 L 701.0625 293.070313 L 697.359375 293.070313 L 697.359375 296.722656 L 701.0625 296.722656 L 701.0625 314.339844 C 701.0625 316.046875 701.441406 317.433594 702.210938 318.503906 C 702.976563 319.570313 704.429688 320.105469 706.574219 320.105469 C 707.238281 320.105469 707.855469 320.070313 708.425781 320.007813 C 708.996094 319.9375 709.546875 319.832031 710.070313 319.683594 L 710.070313 316.128906 C 709.730469 316.175781 709.433594 316.203125 709.179688 316.210938 C 708.921875 316.222656 708.683594 316.226563 708.464844 316.226563 C 707.628906 316.226563 707.03125 316.136719 706.675781 315.957031 C 706.027344 315.640625 705.707031 315.019531 705.707031 314.09375 L 705.707031 296.722656 L 710.070313 296.722656 L 710.070313 293.070313 L 705.707031 293.070313 Z M 688.527344 319.683594 L 693.199219 319.683594 L 693.199219 293.195313 L 688.527344 293.195313 Z M 688.527344 288.253906 L 693.199219 288.253906 L 693.199219 283.183594 L 688.527344 283.183594 Z M 683.0625 292.476563 C 681.242188 292.476563 679.632813 293.121094 678.238281 294.402344 C 676.84375 295.683594 675.964844 296.773438 675.609375 297.667969 L 675.609375 293.070313 L 671.246094 293.070313 L 671.246094 319.683594 L 675.839844 319.683594 L 675.839844 304.378906 C 675.839844 302.488281 676.460938 300.820313 677.703125 299.371094 C 678.945313 297.921875 680.722656 297.195313 683.039063 297.195313 C 683.308594 297.195313 683.5625 297.207031 683.789063 297.222656 C 684.019531 297.238281 684.269531 297.269531 684.542969 297.320313 L 684.542969 292.601563 C 684.050781 292.550781 683.703125 292.515625 683.496094 292.5 C 683.292969 292.484375 683.148438 292.476563 683.0625 292.476563 M 658.996094 313.414063 C 657.878906 315.65625 655.8125 316.773438 652.800781 316.773438 C 650.058594 316.773438 648.054688 315.832031 646.792969 313.945313 C 645.53125 312.058594 644.902344 309.703125 644.902344 306.875 C 644.902344 303.929688 645.53125 301.414063 646.792969 299.332031 C 648.054688 297.246094 650.074219 296.203125 652.851563 296.203125 C 655.980469 296.203125 658.1875 297.425781 659.464844 299.875 C 660.273438 301.429688 660.675781 303.449219 660.675781 305.929688 C 660.675781 308.675781 660.117188 311.171875 658.996094 313.414063 M 652.980469 292.300781 C 649.074219 292.300781 645.964844 293.625 643.652344 296.273438 C 641.335938 298.921875 640.179688 302.480469 640.179688 306.949219 C 640.179688 311.121094 641.277344 314.441406 643.472656 316.917969 C 645.671875 319.390625 648.636719 320.628906 652.371094 320.628906 C 656.847656 320.628906 660.152344 319.226563 662.28125 316.429688 C 664.410156 313.636719 665.476563 310.09375 665.476563 305.804688 C 665.476563 301.371094 664.269531 298.011719 661.851563 295.726563 C 659.433594 293.445313 656.476563 292.300781 652.980469 292.300781 M 626.035156 292.425781 C 623.824219 292.425781 621.980469 292.898438 620.496094 293.84375 C 619.628906 294.386719 618.648438 295.332031 617.5625 296.675781 L 617.5625 283.058594 L 612.96875 283.058594 L 612.96875 319.683594 L 617.5625 319.683594 L 617.5625 305.570313 C 617.5625 302.023438 618.335938 299.617188 619.882813 298.339844 C 621.433594 297.0625 623.160156 296.425781 625.066406 296.425781 C 627.363281 296.425781 628.929688 297.15625 629.761719 298.613281 C 630.273438 299.523438 630.527344 300.957031 630.527344 302.914063 L 630.527344 319.683594 L 635.253906 319.683594 L 635.253906 302.613281 C 635.253906 299.996094 634.867188 297.953125 634.105469 296.476563 C 632.691406 293.777344 630.003906 292.425781 626.035156 292.425781 M 604.007813 285.644531 L 599.359375 285.644531 L 599.359375 293.070313 L 595.660156 293.070313 L 595.660156 296.722656 L 599.359375 296.722656 L 599.359375 314.339844 C 599.359375 316.046875 599.746094 317.433594 600.511719 318.503906 C 601.277344 319.570313 602.730469 320.105469 604.875 320.105469 C 605.539063 320.105469 606.15625 320.070313 606.726563 320.007813 C 607.296875 319.9375 607.84375 319.832031 608.371094 319.683594 L 608.371094 316.128906 C 608.03125 316.175781 607.734375 316.203125 607.480469 316.210938 C 607.222656 316.222656 606.984375 316.226563 606.765625 316.226563 C 605.929688 316.226563 605.335938 316.136719 604.980469 315.957031 C 604.328125 315.640625 604.007813 315.019531 604.007813 314.09375 L 604.007813 296.722656 L 608.371094 296.722656 L 608.371094 293.070313 L 604.007813 293.070313 Z M 586.34375 306.140625 C 586.34375 308.742188 586.035156 310.789063 585.421875 312.277344 C 584.296875 315.0625 582.175781 316.453125 579.058594 316.453125 C 576.886719 316.453125 575.402344 315.65625 574.609375 314.066406 C 574.179688 313.207031 573.964844 312.097656 573.964844 310.738281 L 573.964844 293.070313 L 569.265625 293.070313 L 569.265625 311.160156 C 569.265625 313.429688 569.640625 315.242188 570.394531 316.601563 C 571.777344 319.136719 574.382813 320.402344 578.207031 320.402344 C 580.660156 320.402344 582.75 319.707031 584.46875 318.316406 C 585.335938 317.621094 586.0625 316.765625 586.648438 315.757813 L 586.597656 319.683594 L 590.9375 319.683594 L 590.9375 293.070313 L 586.34375 293.070313 Z M 542.703125 304.726563 L 548.703125 288.597656 L 554.476563 304.726563 Z M 546.050781 283.183594 L 531.933594 319.683594 L 537.140625 319.683594 L 541.203125 308.75 L 555.917969 308.75 L 559.832031 319.683594 L 565.398438 319.683594 L 551.789063 283.183594 Z M 506.40625 314.75 L 499.078125 293.070313 L 493.871094 293.070313 L 503.980469 320.464844 C 503.742188 321.058594 503.359375 321.96875 502.832031 323.191406 C 502.304688 324.414063 502 325.09375 501.914063 325.226563 C 501.644531 325.621094 501.308594 325.957031 500.910156 326.230469 C 500.507813 326.503906 499.886719 326.640625 499.035156 326.640625 C 498.765625 326.640625 498.449219 326.613281 498.09375 326.566406 C 497.734375 326.515625 497.160156 326.382813 496.359375 326.167969 L 496.359375 330.242188 C 496.871094 330.375 497.300781 330.464844 497.648438 330.515625 C 497.996094 330.5625 498.492188 330.589844 499.140625 330.589844 C 501.792969 330.589844 503.664063 329.84375 504.753906 328.355469 C 505.839844 326.867188 507.710938 322.726563 510.359375 315.941406 C 511.484375 313.058594 512.878906 309.332031 514.546875 304.757813 C 516.777344 298.675781 518.214844 294.777344 518.859375 293.070313 L 513.78125 293.070313 Z M 487.734375 285.644531 L 483.085938 285.644531 L 483.085938 293.070313 L 479.386719 293.070313 L 479.386719 296.722656 L 483.085938 296.722656 L 483.085938 314.339844 C 483.085938 316.046875 483.46875 317.433594 484.234375 318.503906 C 485.003906 319.570313 486.457031 320.105469 488.601563 320.105469 C 489.265625 320.105469 489.882813 320.070313 490.453125 320.007813 C 491.019531 319.9375 491.570313 319.832031 492.097656 319.683594 L 492.097656 316.128906 C 491.757813 316.175781 491.460938 316.203125 491.203125 316.210938 C 490.949219 316.222656 490.710938 316.226563 490.488281 316.226563 C 489.65625 316.226563 489.0625 316.136719 488.703125 315.957031 C 488.054688 315.640625 487.734375 315.019531 487.734375 314.09375 L 487.734375 296.722656 L 492.097656 296.722656 L 492.097656 293.070313 L 487.734375 293.070313 Z M 456.5625 304.253906 C 456.648438 301.96875 457.398438 300.082031 458.816406 298.601563 C 460.234375 297.117188 461.988281 296.378906 464.082031 296.378906 C 467 296.378906 469.085938 297.453125 470.335938 299.605469 C 471.007813 300.765625 471.4375 302.316406 471.625 304.253906 Z M 475.941406 301.941406 C 475.636719 300.152344 475.027344 298.589844 474.113281 297.246094 C 473.167969 295.839844 471.789063 294.691406 469.980469 293.804688 C 468.171875 292.917969 466.300781 292.476563 464.371094 292.476563 C 460.550781 292.476563 457.453125 293.808594 455.089844 296.476563 C 452.71875 299.144531 451.535156 302.613281 451.535156 306.886719 C 451.535156 311.226563 452.710938 314.601563 455.0625 317.011719 C 457.414063 319.421875 460.277344 320.628906 463.660156 320.628906 C 465.046875 320.628906 466.289063 320.492188 467.386719 320.230469 C 469.429688 319.765625 471.144531 318.871094 472.527344 317.546875 C 473.355469 316.785156 474.105469 315.800781 474.777344 314.601563 C 475.449219 313.398438 475.847656 312.3125 475.964844 311.335938 L 471.445313 311.335938 C 471.113281 312.515625 470.554688 313.554688 469.757813 314.453125 C 468.339844 316.003906 466.441406 316.773438 464.0625 316.773438 C 461.511719 316.773438 459.628906 315.957031 458.414063 314.320313 C 457.195313 312.683594 456.546875 310.511719 456.464844 307.804688 L 476.347656 307.804688 C 476.347656 305.125 476.210938 303.167969 475.941406 301.941406 M 446.914063 282.664063 C 443.851563 282.664063 441.785156 283.425781 440.710938 284.945313 C 440.113281 285.808594 439.785156 287.167969 439.714844 289.023438 L 439.714844 293.195313 L 435.914063 293.195313 L 435.914063 296.722656 L 439.714844 296.722656 L 439.714844 319.683594 L 444.261719 319.683594 L 444.261719 296.722656 L 448.855469 296.722656 L 448.855469 293.195313 L 444.261719 293.195313 C 444.261719 290.3125 444.398438 288.519531 444.671875 287.816406 C 444.945313 287.113281 445.789063 286.761719 447.203125 286.761719 C 447.390625 286.761719 447.59375 286.765625 447.808594 286.773438 C 448.023438 286.785156 448.371094 286.800781 448.855469 286.835938 L 448.855469 282.761719 C 448.464844 282.726563 448.113281 282.703125 447.808594 282.6875 C 447.503906 282.671875 447.203125 282.664063 446.914063 282.664063 M 426.441406 309.753906 C 426.441406 312.5 425.164063 314.476563 422.613281 315.683594 C 421.097656 316.410156 419.53125 316.773438 417.914063 316.773438 C 416.589844 316.773438 415.441406 316.402344 414.46875 315.660156 C 413.5 314.917969 413.015625 313.898438 413.015625 312.609375 C 413.015625 310.910156 413.726563 309.667969 415.144531 308.890625 C 415.984375 308.429688 417.234375 308.089844 418.902344 307.875 L 421.679688 307.527344 C 422.527344 307.429688 423.394531 307.261719 424.277344 307.03125 C 425.160156 306.796875 425.882813 306.507813 426.441406 306.160156 Z M 432.566406 316.652344 C 431.9375 316.652344 431.527344 316.511719 431.328125 316.230469 C 431.136719 315.949219 431.035156 315.578125 431.035156 315.109375 L 431.035156 299.78125 C 431.035156 297.261719 430.042969 295.410156 428.054688 294.214844 C 426.046875 293.023438 423.4375 292.425781 420.226563 292.425781 C 417.457031 292.425781 415.019531 293.070313 412.921875 294.355469 C 410.820313 295.644531 409.730469 297.933594 409.644531 301.222656 L 413.933594 301.222656 C 414.105469 299.839844 414.46875 298.800781 415.027344 298.101563 C 416.03125 296.835938 417.730469 296.203125 420.125 296.203125 C 422.195313 296.203125 423.789063 296.546875 424.902344 297.238281 C 426.011719 297.929688 426.570313 299.039063 426.570313 300.566406 C 426.570313 301.316406 426.46875 301.890625 426.265625 302.289063 C 425.90625 303.015625 425.199219 303.445313 424.144531 303.578125 L 416.816406 304.472656 C 414.246094 304.785156 412.171875 305.621094 410.589844 306.976563 C 409.007813 308.335938 408.214844 310.246094 408.214844 312.710938 C 408.214844 314.960938 409.019531 316.835938 410.628906 318.332031 C 412.234375 319.828125 414.308594 320.578125 416.84375 320.578125 C 418.953125 320.578125 420.886719 320.136719 422.640625 319.261719 C 424.390625 318.382813 425.734375 317.347656 426.671875 316.15625 C 426.824219 317.214844 427.089844 318.035156 427.464844 318.613281 C 428.179688 319.707031 429.328125 320.253906 430.910156 320.253906 C 431.554688 320.253906 432.066406 320.230469 432.441406 320.179688 C 432.816406 320.128906 433.359375 320.007813 434.074219 319.804688 L 434.074219 316.503906 C 433.785156 316.550781 433.511719 316.589844 433.257813 316.613281 C 433.003906 316.636719 432.773438 316.652344 432.566406 316.652344 M 399.46875 302.042969 C 398.132813 301.0625 396.238281 300.292969 393.78125 299.730469 L 388.6875 298.5625 C 385.257813 297.769531 383.054688 297.105469 382.082031 296.578125 C 380.597656 295.75 379.855469 294.4375 379.855469 292.648438 C 379.855469 291.027344 380.484375 289.601563 381.738281 288.375 C 382.996094 287.152344 385.0625 286.539063 387.933594 286.539063 C 391.488281 286.539063 394.011719 287.492188 395.496094 289.394531 C 396.296875 290.4375 396.816406 291.9375 397.0625 293.890625 L 401.835938 293.890625 C 401.835938 289.835938 400.496094 286.882813 397.820313 285.035156 C 395.148438 283.1875 391.898438 282.265625 388.070313 282.265625 C 383.914063 282.265625 380.703125 283.316406 378.4375 285.421875 C 376.164063 287.523438 375.03125 290.214844 375.03125 293.496094 C 375.03125 296.523438 376.1875 298.804688 378.492188 300.328125 C 379.828125 301.207031 382.105469 302.007813 385.316406 302.738281 L 390.238281 303.855469 C 392.910156 304.46875 394.871094 305.1875 396.125 306.015625 C 397.363281 306.863281 397.980469 308.277344 397.980469 310.265625 C 397.980469 312.917969 396.523438 314.753906 393.605469 315.78125 C 392.09375 316.3125 390.421875 316.578125 388.585938 316.578125 C 384.488281 316.578125 381.628906 315.367188 380.003906 312.949219 C 379.152344 311.65625 378.667969 309.976563 378.554688 307.90625 L 373.78125 307.90625 C 373.730469 311.847656 374.988281 314.96875 377.566406 317.273438 C 380.136719 319.59375 383.695313 320.75 388.246094 320.75 C 392.144531 320.75 395.566406 319.882813 398.511719 318.140625 C 401.460938 316.402344 402.933594 313.511719 402.933594 309.46875 C 402.933594 306.222656 401.777344 303.75 399.46875 302.042969 M 346.949219 314.054688 C 345.589844 315.835938 343.847656 316.726563 341.730469 316.726563 C 339.003906 316.726563 337.023438 315.765625 335.789063 313.84375 C 334.550781 311.921875 333.933594 309.539063 333.933594 306.6875 C 333.933594 303.34375 334.648438 300.808594 336.078125 299.085938 C 337.511719 297.363281 339.378906 296.5 341.679688 296.5 C 343.746094 296.5 345.480469 297.308594 346.886719 298.921875 C 348.292969 300.539063 348.996094 303.027344 348.996094 306.390625 C 348.996094 309.71875 348.3125 312.273438 346.949219 314.054688 M 348.816406 296.5 C 347.78125 295.257813 346.859375 294.386719 346.046875 293.890625 C 344.636719 293.03125 342.890625 292.601563 340.804688 292.601563 C 337.042969 292.601563 334.148438 294.019531 332.121094 296.859375 C 330.097656 299.703125 329.085938 303.058594 329.085938 306.9375 C 329.085938 311.078125 330.195313 314.394531 332.414063 316.886719 C 334.636719 319.378906 337.261719 320.628906 340.296875 320.628906 C 342.179688 320.628906 343.847656 320.261719 345.308594 319.535156 C 346.765625 318.804688 348.027344 317.621094 349.097656 315.980469 L 349.097656 319.683594 L 353.230469 319.683594 L 353.230469 283.058594 L 348.816406 283.058594 Z M 318.902344 313.414063 C 317.785156 315.65625 315.71875 316.773438 312.710938 316.773438 C 309.964844 316.773438 307.964844 315.832031 306.699219 313.945313 C 305.4375 312.058594 304.808594 309.703125 304.808594 306.875 C 304.808594 303.929688 305.4375 301.414063 306.699219 299.332031 C 307.964844 297.246094 309.980469 296.203125 312.757813 296.203125 C 315.886719 296.203125 318.09375 297.425781 319.371094 299.875 C 320.179688 301.429688 320.585938 303.449219 320.585938 305.929688 C 320.585938 308.675781 320.023438 311.171875 318.902344 313.414063 M 312.886719 292.300781 C 308.980469 292.300781 305.871094 293.625 303.558594 296.273438 C 301.242188 298.921875 300.085938 302.480469 300.085938 306.949219 C 300.085938 311.121094 301.183594 314.441406 303.378906 316.917969 C 305.578125 319.390625 308.542969 320.628906 312.277344 320.628906 C 316.757813 320.628906 320.058594 319.226563 322.1875 316.429688 C 324.316406 313.636719 325.382813 310.09375 325.382813 305.804688 C 325.382813 301.371094 324.171875 298.011719 321.757813 295.726563 C 319.339844 293.445313 316.382813 292.300781 312.886719 292.300781 M 289.828125 313.414063 C 288.710938 315.65625 286.644531 316.773438 283.632813 316.773438 C 280.890625 316.773438 278.886719 315.832031 277.625 313.945313 C 276.363281 312.058594 275.734375 309.703125 275.734375 306.875 C 275.734375 303.929688 276.363281 301.414063 277.625 299.332031 C 278.886719 297.246094 280.90625 296.203125 283.683594 296.203125 C 286.8125 296.203125 289.019531 297.425781 290.296875 299.875 C 291.105469 301.429688 291.507813 303.449219 291.507813 305.929688 C 291.507813 308.675781 290.949219 311.171875 289.828125 313.414063 M 283.8125 292.300781 C 279.90625 292.300781 276.796875 293.625 274.484375 296.273438 C 272.167969 298.921875 271.011719 302.480469 271.011719 306.949219 C 271.011719 311.121094 272.109375 314.441406 274.304688 316.917969 C 276.503906 319.390625 279.46875 320.628906 283.203125 320.628906 C 287.679688 320.628906 290.984375 319.226563 293.113281 316.429688 C 295.242188 313.636719 296.308594 310.09375 296.308594 305.804688 C 296.308594 301.371094 295.097656 298.011719 292.683594 295.726563 C 290.265625 293.445313 287.308594 292.300781 283.8125 292.300781 M 242.039063 319.683594 L 247.117188 319.683594 L 247.117188 303.085938 L 265.523438 303.085938 L 265.523438 298.738281 L 247.117188 298.738281 L 247.117188 287.65625 L 268.046875 287.65625 L 268.046875 283.183594 L 242.039063 283.183594 Z M 210.640625 292.476563 C 208.871094 292.476563 207.261719 292.816406 205.816406 293.496094 C 204.367188 294.175781 202.996094 295.292969 201.703125 296.847656 L 201.703125 293.070313 L 197.339844 293.070313 L 197.339844 319.683594 L 201.933594 319.683594 L 201.933594 305.746094 C 201.933594 304.003906 202.050781 302.667969 202.277344 301.730469 C 202.507813 300.796875 203.007813 299.886719 203.773438 299.011719 C 204.726563 297.917969 205.832031 297.1875 207.089844 296.824219 C 207.789063 296.609375 208.683594 296.5 209.769531 296.5 C 211.914063 296.5 213.394531 297.332031 214.214844 298.984375 C 214.707031 299.980469 214.953125 301.289063 214.953125 302.914063 L 214.953125 319.683594 L 219.625 319.683594 L 219.625 302.613281 C 219.625 299.929688 219.25 297.867188 218.503906 296.425781 C 217.140625 293.792969 214.519531 292.476563 210.640625 292.476563 M 185.214844 309.753906 C 185.214844 312.5 183.9375 314.476563 181.386719 315.683594 C 179.871094 316.410156 178.304688 316.773438 176.6875 316.773438 C 175.359375 316.773438 174.214844 316.402344 173.242188 315.660156 C 172.273438 314.917969 171.789063 313.898438 171.789063 312.609375 C 171.789063 310.910156 172.496094 309.667969 173.921875 308.890625 C 174.757813 308.429688 176.007813 308.089844 177.671875 307.875 L 180.449219 307.527344 C 181.300781 307.429688 182.164063 307.261719 183.050781 307.03125 C 183.933594 306.796875 184.652344 306.507813 185.214844 306.160156 Z M 191.339844 316.652344 C 190.710938 316.652344 190.296875 316.511719 190.105469 316.230469 C 189.90625 315.949219 189.808594 315.578125 189.808594 315.109375 L 189.808594 299.78125 C 189.808594 297.261719 188.816406 295.410156 186.828125 294.214844 C 184.820313 293.023438 182.210938 292.425781 178.996094 292.425781 C 176.230469 292.425781 173.792969 293.070313 171.695313 294.355469 C 169.59375 295.644531 168.503906 297.933594 168.417969 301.222656 L 172.707031 301.222656 C 172.878906 299.839844 173.242188 298.800781 173.800781 298.101563 C 174.804688 296.835938 176.503906 296.203125 178.898438 296.203125 C 180.96875 296.203125 182.5625 296.546875 183.671875 297.238281 C 184.785156 297.929688 185.34375 299.039063 185.34375 300.566406 C 185.34375 301.316406 185.238281 301.890625 185.035156 302.289063 C 184.679688 303.015625 183.972656 303.445313 182.917969 303.578125 L 175.589844 304.472656 C 173.019531 304.785156 170.945313 305.621094 169.363281 306.976563 C 167.777344 308.335938 166.988281 310.246094 166.988281 312.710938 C 166.988281 314.960938 167.792969 316.835938 169.398438 318.332031 C 171.007813 319.828125 173.078125 320.578125 175.617188 320.578125 C 177.726563 320.578125 179.65625 320.136719 181.410156 319.261719 C 183.164063 318.382813 184.507813 317.347656 185.445313 316.15625 C 185.597656 317.214844 185.859375 318.035156 186.234375 318.613281 C 186.949219 319.707031 188.101563 320.253906 189.679688 320.253906 C 190.328125 320.253906 190.839844 320.230469 191.214844 320.179688 C 191.589844 320.128906 192.132813 320.007813 192.847656 319.804688 L 192.847656 316.503906 C 192.558594 316.550781 192.285156 316.589844 192.027344 316.613281 C 191.773438 316.636719 191.546875 316.652344 191.339844 316.652344 M 142.660156 304.253906 C 142.746094 301.96875 143.496094 300.082031 144.914063 298.601563 C 146.332031 297.117188 148.085938 296.378906 150.179688 296.378906 C 153.097656 296.378906 155.183594 297.453125 156.429688 299.605469 C 157.105469 300.765625 157.535156 302.316406 157.722656 304.253906 Z M 162.039063 301.941406 C 161.734375 300.152344 161.125 298.589844 160.214844 297.246094 C 159.265625 295.839844 157.886719 294.691406 156.078125 293.804688 C 154.265625 292.917969 152.398438 292.476563 150.46875 292.476563 C 146.648438 292.476563 143.550781 293.808594 141.183594 296.476563 C 138.816406 299.144531 137.632813 302.613281 137.632813 306.886719 C 137.632813 311.226563 138.808594 314.601563 141.15625 317.011719 C 143.507813 319.421875 146.378906 320.628906 149.757813 320.628906 C 151.144531 320.628906 152.382813 320.492188 153.480469 320.230469 C 155.523438 319.765625 157.238281 318.871094 158.625 317.546875 C 159.453125 316.785156 160.203125 315.800781 160.875 314.601563 C 161.546875 313.398438 161.941406 312.3125 162.0625 311.335938 L 157.542969 311.335938 C 157.214844 312.515625 156.648438 313.554688 155.855469 314.453125 C 154.4375 316.003906 152.539063 316.773438 150.15625 316.773438 C 147.609375 316.773438 145.726563 315.957031 144.507813 314.320313 C 143.296875 312.683594 142.644531 310.511719 142.558594 307.804688 L 162.445313 307.804688 C 162.445313 305.125 162.308594 303.167969 162.039063 301.941406 M 127.019531 314.054688 C 125.59375 315.800781 123.804688 316.675781 121.652344 316.675781 C 118.476563 316.675781 116.289063 315.300781 115.097656 312.550781 C 114.464844 311.109375 114.148438 309.363281 114.148438 307.308594 C 114.148438 304.757813 114.464844 302.65625 115.097656 301 C 116.273438 297.898438 118.460938 296.351563 121.652344 296.351563 C 124.828125 296.351563 127.015625 297.816406 128.210938 300.75 C 128.84375 302.273438 129.15625 304.09375 129.15625 306.214844 C 129.15625 309.695313 128.445313 312.308594 127.019531 314.054688 M 122.722656 292.425781 C 120.621094 292.425781 118.796875 292.925781 117.246094 293.917969 C 116.152344 294.578125 115.144531 295.515625 114.226563 296.722656 L 114.226563 293.195313 L 109.730469 293.195313 L 109.730469 330.292969 L 114.328125 330.292969 L 114.328125 316.703125 C 115.335938 317.910156 116.25 318.761719 117.070313 319.261719 C 118.46875 320.136719 120.203125 320.578125 122.269531 320.578125 C 124.902344 320.578125 127.210938 319.789063 129.191406 318.21875 C 132.316406 315.730469 133.878906 311.589844 133.878906 305.792969 C 133.878906 301.503906 132.796875 298.203125 130.628906 295.890625 C 128.464844 293.582031 125.828125 292.425781 122.722656 292.425781 M 97.996094 313.414063 C 96.875 315.65625 94.8125 316.773438 91.800781 316.773438 C 89.054688 316.773438 87.054688 315.832031 85.792969 313.945313 C 84.53125 312.058594 83.898438 309.703125 83.898438 306.875 C 83.898438 303.929688 84.53125 301.414063 85.792969 299.332031 C 87.054688 297.246094 89.074219 296.203125 91.847656 296.203125 C 94.980469 296.203125 97.183594 297.425781 98.464844 299.875 C 99.269531 301.429688 99.675781 303.449219 99.675781 305.929688 C 99.675781 308.675781 99.113281 311.171875 97.996094 313.414063 M 91.976563 292.300781 C 88.074219 292.300781 84.964844 293.625 82.648438 296.273438 C 80.335938 298.921875 79.175781 302.480469 79.175781 306.949219 C 79.175781 311.121094 80.273438 314.441406 82.472656 316.917969 C 84.667969 319.390625 87.632813 320.628906 91.367188 320.628906 C 95.847656 320.628906 99.152344 319.226563 101.277344 316.429688 C 103.40625 313.636719 104.472656 310.09375 104.472656 305.804688 C 104.472656 301.371094 103.265625 298.011719 100.847656 295.726563 C 98.433594 293.445313 95.476563 292.300781 91.976563 292.300781 M 75.578125 292.476563 C 73.757813 292.476563 72.148438 293.121094 70.753906 294.402344 C 69.355469 295.683594 68.480469 296.773438 68.125 297.667969 L 68.125 293.070313 L 63.757813 293.070313 L 63.757813 319.683594 L 68.351563 319.683594 L 68.351563 304.378906 C 68.351563 302.488281 68.972656 300.820313 70.214844 299.371094 C 71.457031 297.921875 73.234375 297.195313 75.550781 297.195313 C 75.824219 297.195313 76.074219 297.207031 76.304688 297.222656 C 76.535156 297.238281 76.785156 297.269531 77.058594 297.320313 L 77.058594 292.601563 C 76.5625 292.550781 76.214844 292.515625 76.011719 292.5 C 75.804688 292.484375 75.660156 292.476563 75.578125 292.476563 M 51.53125 306.140625 C 51.53125 308.742188 51.222656 310.789063 50.609375 312.277344 C 49.484375 315.0625 47.363281 316.453125 44.246094 316.453125 C 42.074219 316.453125 40.59375 315.65625 39.796875 314.066406 C 39.363281 313.207031 39.152344 312.097656 39.152344 310.738281 L 39.152344 293.070313 L 34.453125 293.070313 L 34.453125 311.160156 C 34.453125 313.429688 34.828125 315.242188 35.582031 316.601563 C 36.964844 319.136719 39.570313 320.402344 43.394531 320.402344 C 45.851563 320.402344 47.9375 319.707031 49.65625 318.316406 C 50.527344 317.621094 51.253906 316.765625 51.835938 315.757813 L 51.785156 319.683594 L 56.125 319.683594 L 56.125 293.070313 L 51.53125 293.070313 Z M 5.734375 302.960938 L 26.308594 302.960938 L 26.308594 298.738281 L 5.734375 298.738281 L 5.734375 287.65625 L 27.996094 287.65625 L 27.996094 283.183594 L 0.78125 283.183594 L 0.78125 319.683594 L 28.378906 319.683594 L 28.378906 315.335938 L 5.734375 315.335938 "/>
</g>
<g clip-path="url(#clip3)" clip-rule="nonzero">
<g clip-path="url(#clip4)" clip-rule="nonzero">
<g clip-path="url(#clip5)" clip-rule="nonzero">
<path style=" stroke:none;fill-rule:nonzero;fill:url(#linear0);" d="M 0 0 L 0 188.996094 L 281.910156 188.996094 L 281.910156 0 Z M 0 0 "/>
</g>
</g>
</g>
<path style=" stroke:none;fill-rule:nonzero;fill:rgb(0%,26.660156%,58.006287%);fill-opacity:1;" d="M 581.753906 213.992188 C 571.960938 222.574219 564.300781 226.613281 553.261719 226.613281 C 542.21875 226.613281 532.78125 221.398438 532.78125 207.765625 C 532.78125 196.660156 540.617188 189.421875 557 189.421875 C 568.753906 189.421875 577.480469 192.453125 581.753906 193.800781 Z M 556.289063 132.375 C 546.851563 132.375 531.355469 134.394531 523.519531 138.769531 L 523.519531 153.914063 C 530.289063 151.222656 539.726563 147.855469 555.933594 147.855469 C 571.066406 147.855469 582.109375 156.945313 582.109375 167.546875 L 582.109375 179.496094 C 575.699219 177.640625 566.082031 175.457031 553.4375 175.457031 C 534.917969 175.457031 514.617188 184.542969 514.617188 207.261719 C 514.617188 232.839844 532.605469 241.253906 549.878906 241.253906 C 567.148438 241.253906 574.984375 235.363281 582.644531 227.453125 C 583.714844 234.1875 584.78125 239.234375 584.78125 239.234375 L 600.273438 239.234375 L 600.273438 167.378906 C 600.273438 142.132813 574.984375 132.375 556.289063 132.375 M 467.570313 179.570313 C 449.871094 175.453125 440.070313 175.195313 440.070313 162.847656 C 440.070313 150.496094 453.414063 147.667969 461.855469 147.667969 C 470.292969 147.667969 479.820313 149.210938 490.984375 154.097656 L 490.984375 138.917969 C 482.546875 135.832031 470.839844 132.488281 462.398438 132.488281 C 440.886719 132.488281 422.371094 141.75 422.371094 163.875 C 422.371094 186.261719 440.613281 189.089844 456.136719 192.949219 C 469.164063 196.1875 477.917969 201.183594 477.644531 208.902344 C 477.21875 220.988281 465.394531 226.394531 450.417969 226.394531 C 438.980469 226.394531 431.085938 224.339844 422.101563 220.480469 L 422.101563 236.175781 C 422.101563 236.175781 436.53125 241.0625 450.691406 241.0625 C 484.449219 241.0625 495.066406 226.652344 495.066406 208.644531 C 495.066406 190.632813 485.269531 183.6875 467.570313 179.570313 M 360.023438 119.878906 L 360.023438 135.574219 L 341.511719 135.574219 L 341.511719 150.496094 L 360.023438 150.496094 L 360.023438 238.746094 L 378.8125 238.746094 L 378.8125 150.496094 L 410.664063 150.496094 L 410.664063 135.574219 L 378.8125 135.574219 L 378.8125 119.363281 C 378.8125 94.921875 394.875 94.40625 401.679688 94.40625 C 408.488281 94.40625 410.664063 94.40625 417.472656 96.46875 L 417.472656 81.542969 C 417.472656 81.542969 412.570313 78.972656 401.410156 78.972656 C 378.265625 78.972656 360.023438 92.351563 360.023438 119.878906 M 254.113281 175.453125 C 257.378906 155.644531 272.355469 147.925781 282.699219 147.925781 C 293.046875 147.925781 307.476563 153.585938 307.476563 175.453125 Z M 283.789063 132.488281 C 250.300781 132.488281 235.054688 160.789063 235.054688 188.058594 C 235.054688 215.332031 247.035156 241.574219 289.234375 241.574219 C 309.65625 241.574219 322.722656 235.402344 322.722656 235.402344 L 322.722656 220.222656 C 312.378906 224.339844 304.480469 226.140625 290.597656 226.140625 C 276.710938 226.140625 253.566406 220.480469 253.566406 191.148438 L 326.535156 191.148438 C 328.441406 158.730469 317.277344 132.488281 283.789063 132.488281 "/>
</g>
</svg>
