<svg id="Layer_1" data-name="Layer 1" xmlns="http://www.w3.org/2000/svg" xmlns:xlink="http://www.w3.org/1999/xlink" viewBox="0 0 115.82 30.6"><defs><style>.cls-1{fill:none;clip-rule:evenodd;}.cls-2{fill:#3f3f3f;}.cls-105,.cls-3{fill:#004b97;}.cls-4{clip-path:url(#clip-path);}.cls-5{fill:#f39845;}.cls-6{fill:#f39947;}.cls-7{fill:#f39a48;}.cls-8{fill:#f39a49;}.cls-9{fill:#f39b4b;}.cls-10{fill:#f39c4c;}.cls-11{fill:#f39d4d;}.cls-12{fill:#f49d4f;}.cls-13{fill:#f49e50;}.cls-14{fill:#f49f51;}.cls-15{fill:#f4a053;}.cls-16{fill:#f4a054;}.cls-17{fill:#f4a156;}.cls-18{fill:#f4a257;}.cls-19{fill:#f7b273;}.cls-20{fill:#f7b375;}.cls-21{fill:#f7b476;}.cls-22{fill:#f7b578;}.cls-23{fill:#f8b67a;}.cls-24{fill:#f8b77c;}.cls-25{fill:#f8b87d;}.cls-26{fill:#f8b97f;}.cls-27{fill:#f8ba81;}.cls-28{fill:#f8bb83;}.cls-29{fill:#f8bc85;}.cls-30{fill:#f9bd86;}.cls-31{fill:#f9be88;}.cls-32,.cls-33{fill:#f9bf8a;}.cls-105,.cls-106,.cls-33{fill-rule:evenodd;}.cls-34{fill:#ee7d16;}.cls-35{fill:#ee7e17;}.cls-36{fill:#ef7e18;}.cls-37{fill:#ef7f18;}.cls-38{fill:#ef7f19;}.cls-39{fill:#ef7f1a;}.cls-40{fill:#ef801a;}.cls-41{fill:#ef801b;}.cls-42{fill:#ef801c;}.cls-43{fill:#ef811c;}.cls-44{fill:#ef811d;}.cls-45{fill:#ef821e;}.cls-46{fill:#ef821f;}.cls-47{fill:#ef831f;}.cls-48{fill:#ef8320;}.cls-49{fill:#ef8321;}.cls-50{fill:#ef8421;}.cls-51{fill:#ef8422;}.cls-52{fill:#f08523;}.cls-53{fill:#f08524;}.cls-54{fill:#f08727;}.cls-55{fill:#f08728;}.cls-56{fill:#f08829;}.cls-57{fill:#f0882a;}.cls-58{fill:#f0892a;}.cls-59{fill:#f0892b;}.cls-60{fill:#f08a2c;}.cls-61{fill:#f08a2d;}.cls-62{fill:#f18b2e;}.cls-63{fill:#f18c2f;}.cls-64{fill:#f18c30;}.cls-65{fill:#f18d31;}.cls-66{fill:#f18d32;}.cls-67{fill:#f18e33;}.cls-68{fill:#f18e34;}.cls-69{fill:#f18f35;}.cls-70{fill:#f19036;}.cls-71{fill:#ee7b12;}.cls-72{fill:#ee7b13;}.cls-73{fill:#ee7c13;}.cls-74{fill:#ee7c14;}.cls-75{fill:#ee7d15;}.cls-76{fill:#f4a358;}.cls-77{fill:#f5a45a;}.cls-78{fill:#f5a55b;}.cls-79{fill:#f5a55d;}.cls-80{fill:#f5a65e;}.cls-81{fill:#f5a760;}.cls-82{fill:#f5a861;}.cls-83{fill:#f5a963;}.cls-84{fill:#f6aa64;}.cls-85{fill:#f6ab66;}.cls-86{fill:#f6ac68;}.cls-87{fill:#f6ac69;}.cls-88{fill:#f6ad6b;}.cls-89{fill:#f6ae6c;}.cls-90{fill:#f6af6e;}.cls-91{fill:#f7b070;}.cls-92{fill:#f7b171;}.cls-93{fill:#f2913a;}.cls-94{fill:#f2923b;}.cls-95{fill:#f2933c;}.cls-96{fill:#f2933d;}.cls-97{fill:#f2943e;}.cls-98{fill:#f2953f;}.cls-99{fill:#f29541;}.cls-100{fill:#f29642;}.cls-101{fill:#f29743;}.cls-102{fill:#f39744;}.cls-103{fill:#f08625;}.cls-104{fill:#f08626;}.cls-106{fill:#ffea0f;}.cls-107{fill:#1d1e1c;}</style><clipPath id="clip-path" transform="translate(-98.64 -124.29)"><path class="cls-1" d="M107.67,124.29l1.53,1.19,1.74-.28-.76,1,1.49,1.19-2-.5-.83,1-.48-1.38-2-.57,1.71-.34-.4-1.39Zm5.6,1,.35,1.14-1.43.28,1.69.46.43,1.13.69-.85,1.7.41-1.27-1,.62-.87-1.47.23-1.31-1ZM100.58,125l.55,2-2.49.54,2.89.81.67,2,1.24-1.55,2.91.71-2.14-1.73,1.12-1.58-2.55.44-2.2-1.74Zm17.53,3.15.31.89-1.18.24,1.4.34.37.89.56-.67,1.41.29-1.07-.74.5-.68-1.21.19-1.09-.75Zm-17.74,3.14.39,1.49-1.82.42,2.11.55.49,1.47.91-1.13,2.13.47L103,133.36l.82-1.17-1.85.36-1.61-1.23Zm8.73,8.2.26.82-1.08.29,1.26.24.31.81.53-.66,1.28.2-1-.64.47-.67-1.1.25-1-.64ZM104,136.23l.34,1.17-1.49.38,1.73.39.4,1.17.74-.93,1.75.33-1.29-1,.66-.94-1.52.32-1.32-.94Zm17.29-4.41.23.64-.86.17,1,.25.27.64.4-.48,1,.22-.78-.54.36-.5-.87.14-.8-.54ZM114.83,140l.23.65-.86.17,1,.25.27.64.4-.49,1,.22-.78-.54.36-.5-.87.14-.8-.54Z"/></clipPath></defs><path class="cls-2" d="M192.28,145.65a3.54,3.54,0,0,1-3.49,3.89c-1.88,0-3.34-1.47-3.34-3.75,0-2.5,1.64-3.87,3.44-3.87C190.91,141.92,192.28,143.42,192.28,145.65Zm-6.1.1a2.9,2.9,0,0,0,2.65,3.18c1.52,0,2.72-1.36,2.72-3.23,0-1.33-.76-3.19-2.67-3.19S186.18,144.18,186.18,145.75Z" transform="translate(-98.64 -124.29)"/><path class="cls-2" d="M193.75,144.41c0-.91,0-1.64-.06-2.32h.68l.06,1.38h0a2.86,2.86,0,0,1,2.69-1.55c1.86,0,3.12,1.55,3.12,3.69,0,2.61-1.55,3.93-3.31,3.93a2.75,2.75,0,0,1-2.47-1.35h0v4.18h-.71Zm.71,2.09a3.56,3.56,0,0,0,.06.58,2.47,2.47,0,0,0,2.4,1.85c1.67,0,2.62-1.35,2.62-3.29,0-1.64-.91-3.13-2.56-3.13a2.55,2.55,0,0,0-2.41,2,2.6,2.6,0,0,0-.11.62Z" transform="translate(-98.64 -124.29)"/><path class="cls-2" d="M201.85,145.65c0,2.34,1.27,3.25,2.77,3.25a4.18,4.18,0,0,0,2-.41l.18.58a4.88,4.88,0,0,1-2.29.45,3.33,3.33,0,0,1-3.39-3.65c0-2.43,1.39-4,3.27-4,2.38,0,2.84,2.25,2.84,3.29a1.81,1.81,0,0,1,0,.44Zm4.64-.57c0-1-.41-2.57-2.17-2.57a2.6,2.6,0,0,0-2.43,2.57Z" transform="translate(-98.64 -124.29)"/><path class="cls-2" d="M208.72,143.83c0-.66,0-1.16-.06-1.74h.67l.06,1.32h0a2.72,2.72,0,0,1,2.5-1.49c.7,0,2.53.35,2.53,3.08v4.37h-.71v-4.31c0-1.32-.52-2.52-2-2.52a2.33,2.33,0,0,0-2.18,1.67,2.28,2.28,0,0,0-.11.66v4.5h-.71Z" transform="translate(-98.64 -124.29)"/><path class="cls-3" d="M98.83,153.86v-3.31h2v.37H99.34v1h1.45v.37H99.34v1.18h1.51v.37Z" transform="translate(-98.64 -124.29)"/><path class="cls-3" d="M102.8,153.86v-.2a1.85,1.85,0,0,1-.82.26.6.6,0,0,1-.53-.24,1,1,0,0,1-.12-.62v-1.55h.48v1.43c0,.33,0,.55.36.55a2,2,0,0,0,.6-.11v-1.87h.49v2.35Z" transform="translate(-98.64 -124.29)"/><path class="cls-3" d="M105,151.91a1.42,1.42,0,0,0-.59.12v1.83h-.49v-2.35h.47v.23a1,1,0,0,1,.66-.26h.11v.43Z" transform="translate(-98.64 -124.29)"/><path class="cls-3" d="M106.43,153.91c-.69,0-1.09-.45-1.09-1.23a1.07,1.07,0,0,1,1.09-1.22c.7,0,1.08.44,1.08,1.22S107.12,153.91,106.43,153.91Zm0-2.08c-.39,0-.57.26-.57.85s.18.86.57.86.57-.25.57-.85S106.83,151.83,106.43,151.83Z" transform="translate(-98.64 -124.29)"/><path class="cls-3" d="M109.24,153.92a1.43,1.43,0,0,1-.7-.27v1.2h-.49v-3.34h.46v.21a1.83,1.83,0,0,1,.79-.26c.5,0,.79.45.79,1.21S109.75,153.92,109.24,153.92Zm-.15-2a1.62,1.62,0,0,0-.55.13v1.35a1.53,1.53,0,0,0,.54.13c.33,0,.5-.27.5-.79S109.42,151.88,109.09,151.88Z" transform="translate(-98.64 -124.29)"/><path class="cls-3" d="M111,152.75v.08c0,.47.2.68.57.68a2.47,2.47,0,0,0,.78-.16l.09.29a2.38,2.38,0,0,1-1,.28c-.58,0-1-.43-1-1.16s.39-1.3,1-1.3,1,.38,1,1.18v.11Zm.56-.95c-.32,0-.51.23-.54.67l1,0C112,152,111.86,151.8,111.56,151.8Z" transform="translate(-98.64 -124.29)"/><path class="cls-3" d="M114.17,153.86v-.21a1.54,1.54,0,0,1-.72.27c-.32,0-.61-.25-.61-.74a.61.61,0,0,1,.31-.59,2.12,2.12,0,0,1,1-.15v-.08c0-.36,0-.51-.42-.51a4.54,4.54,0,0,0-.69.08l-.05-.3a3.35,3.35,0,0,1,1-.17.62.62,0,0,1,.56.22c.09.13.12.29.12.72v1.46Zm0-1.14c-.65,0-.82.14-.82.45s.12.36.31.36a2,2,0,0,0,.51-.13Z" transform="translate(-98.64 -124.29)"/><path class="cls-3" d="M116.73,153.86v-1.43c0-.32,0-.55-.36-.55a2,2,0,0,0-.6.11v1.87h-.49v-2.35h.47v.2a1.9,1.9,0,0,1,.82-.25.61.61,0,0,1,.53.24c.1.14.12.25.12.63v1.53Z" transform="translate(-98.64 -124.29)"/><path class="cls-3" d="M119.68,150.92v1h1.41v.37h-1.41v1.55h-.51v-3.31h2v.37Z" transform="translate(-98.64 -124.29)"/><path class="cls-3" d="M122.48,153.91c-.69,0-1.09-.45-1.09-1.23a1.07,1.07,0,0,1,1.09-1.22c.7,0,1.09.44,1.09,1.22S123.18,153.91,122.48,153.91Zm0-2.08c-.38,0-.57.26-.57.85s.19.86.58.86.56-.25.56-.85S122.89,151.83,122.48,151.83Z" transform="translate(-98.64 -124.29)"/><path class="cls-3" d="M125.05,153.91c-.7,0-1.09-.45-1.09-1.23s.4-1.22,1.09-1.22,1.08.44,1.08,1.22S125.74,153.91,125.05,153.91Zm0-2.08c-.39,0-.58.26-.58.85s.19.86.58.86.57-.25.57-.85S125.45,151.83,125.05,151.83Z" transform="translate(-98.64 -124.29)"/><path class="cls-3" d="M128.1,153.86v-.21a1.66,1.66,0,0,1-.78.27c-.5,0-.8-.47-.8-1.23s.34-1.23.86-1.23a1.48,1.48,0,0,1,.7.25v-1.37h.49v3.52Zm0-1.85a1.37,1.37,0,0,0-.54-.13c-.32,0-.5.27-.5.79s.16.83.48.83a1.51,1.51,0,0,0,.56-.14Z" transform="translate(-98.64 -124.29)"/><path class="cls-3" d="M131.27,153.9a3.5,3.5,0,0,1-1-.16l.1-.37a3.53,3.53,0,0,0,.84.12c.37,0,.72-.18.72-.53s-.08-.34-.38-.45c-.57-.22-1.24-.3-1.24-1a.93.93,0,0,1,1.06-.94,3.5,3.5,0,0,1,.93.14l-.08.36a4.49,4.49,0,0,0-.79-.1c-.33,0-.61.16-.61.5s.1.36.63.5c.71.2,1,.39,1,1S132,153.9,131.27,153.9Z" transform="translate(-98.64 -124.29)"/><path class="cls-3" d="M134.14,153.86v-.21a1.54,1.54,0,0,1-.72.27c-.32,0-.61-.25-.61-.74a.61.61,0,0,1,.31-.59,2.15,2.15,0,0,1,1-.15v-.08c0-.36,0-.51-.42-.51a4.54,4.54,0,0,0-.69.08l0-.3a3.29,3.29,0,0,1,1-.17.63.63,0,0,1,.56.22c.09.13.12.29.12.72v1.46Zm0-1.14c-.65,0-.82.14-.82.45s.12.36.31.36a2,2,0,0,0,.51-.13Z" transform="translate(-98.64 -124.29)"/><path class="cls-3" d="M136.6,150.66a2.23,2.23,0,0,0-.4,0c-.26,0-.32.1-.32.43v.45h.65v.34h-.65v2h-.48v-2H135v-.29l.41-.05v-.39c0-.35,0-.47.11-.6a.6.6,0,0,1,.54-.25,2.74,2.74,0,0,1,.61.09Z" transform="translate(-98.64 -124.29)"/><path class="cls-3" d="M137.18,152.75v.08c0,.47.2.68.57.68a2.52,2.52,0,0,0,.79-.16l.09.29a2.41,2.41,0,0,1-1,.28c-.57,0-1-.43-1-1.16s.39-1.3,1-1.3,1,.38,1,1.18v.11Zm.57-.95c-.32,0-.51.23-.55.67l1,0C138.18,152,138,151.8,137.75,151.8Z" transform="translate(-98.64 -124.29)"/><path class="cls-3" d="M139.81,153.92a.51.51,0,0,1-.48-.26,1.24,1.24,0,0,1-.07-.54v-1.27h-.4v-.27l.4-.05v-.65h.49v.63h.64v.34h-.64V153c0,.39,0,.4,0,.47a.22.22,0,0,0,.2.08,1.58,1.58,0,0,0,.42-.07l.07.3A1.83,1.83,0,0,1,139.81,153.92Z" transform="translate(-98.64 -124.29)"/><path class="cls-3" d="M141.84,154.15c-.22.61-.37.75-.81.75a1.78,1.78,0,0,1-.36,0l0-.31h.2c.32,0,.34,0,.54-.52l.09-.2-1-2.33h.54l.67,1.78.6-1.78h.44Z" transform="translate(-98.64 -124.29)"/><path class="cls-3" d="M146.52,153.86l-.29-.84h-1.36l-.29.84h-.47l1.17-3.31h.59l1.2,3.31Zm-1-2.89-.55,1.69h1.11Z" transform="translate(-98.64 -124.29)"/><path class="cls-3" d="M148.88,153.86v-.2a1.85,1.85,0,0,1-.82.26.61.61,0,0,1-.53-.24,1,1,0,0,1-.12-.62v-1.55h.49v1.43c0,.33,0,.55.36.55a2.07,2.07,0,0,0,.6-.11v-1.87h.48v2.35Z" transform="translate(-98.64 -124.29)"/><path class="cls-3" d="M150.66,153.92a.53.53,0,0,1-.48-.26,1.24,1.24,0,0,1-.07-.54v-1.27h-.39v-.27l.39-.05v-.65h.49v.63h.65v.34h-.65V153c0,.39,0,.4,0,.47a.26.26,0,0,0,.21.08,1.58,1.58,0,0,0,.41-.07l.07.3A1.78,1.78,0,0,1,150.66,153.92Z" transform="translate(-98.64 -124.29)"/><path class="cls-3" d="M153.2,153.86v-1.43c0-.32,0-.55-.36-.55a2,2,0,0,0-.6.11v1.87h-.49v-3.52h.49v1.36a1.86,1.86,0,0,1,.81-.24.61.61,0,0,1,.52.24c.1.14.11.25.11.63v1.53Z" transform="translate(-98.64 -124.29)"/><path class="cls-3" d="M155.28,153.91c-.69,0-1.09-.45-1.09-1.23a1.07,1.07,0,0,1,1.09-1.22c.7,0,1.09.44,1.09,1.22S156,153.91,155.28,153.91Zm0-2.08c-.39,0-.57.26-.57.85s.18.86.57.86.57-.25.57-.85S155.68,151.83,155.28,151.83Z" transform="translate(-98.64 -124.29)"/><path class="cls-3" d="M158,151.91a1.39,1.39,0,0,0-.59.12v1.83h-.49v-2.35h.47v.23a1,1,0,0,1,.66-.26h.1v.43Z" transform="translate(-98.64 -124.29)"/><path class="cls-3" d="M158.75,151.06a.29.29,0,0,1-.29-.3.28.28,0,0,1,.29-.29.29.29,0,0,1,.29.29A.3.3,0,0,1,158.75,151.06Zm-.24,2.8v-2.35H159v2.35Z" transform="translate(-98.64 -124.29)"/><path class="cls-3" d="M160.31,153.92a.52.52,0,0,1-.48-.26,1.24,1.24,0,0,1-.07-.54v-1.27h-.39v-.27l.39-.05v-.65h.49v.63h.64v.34h-.64V153c0,.39,0,.4,0,.47a.23.23,0,0,0,.21.08,1.58,1.58,0,0,0,.41-.07l.07.3A1.78,1.78,0,0,1,160.31,153.92Z" transform="translate(-98.64 -124.29)"/><path class="cls-3" d="M162.34,154.15c-.22.61-.37.75-.81.75a1.77,1.77,0,0,1-.35,0l0-.31h.2c.33,0,.34,0,.55-.52l.08-.2-1-2.33h.54l.67,1.78.59-1.78h.44Z" transform="translate(-98.64 -124.29)"/><path class="cls-3" d="M121.5,141.85v.33c0,1.93.82,2.81,2.32,2.81a9.9,9.9,0,0,0,3.24-.67l.37,1.18a9.63,9.63,0,0,1-4.14,1.14c-2.36,0-3.91-1.75-3.91-4.73,0-3.24,1.59-5.36,4.26-5.36s3.89,1.57,3.89,4.85v.45Zm2.3-3.89c-1.3,0-2.08.94-2.24,2.73l4.08-.16C125.6,138.78,125,138,123.8,138Z" transform="translate(-98.64 -124.29)"/><path class="cls-3" d="M135.22,133.27a10.08,10.08,0,0,0-1.68-.12c-1,0-1.3.41-1.3,1.77v1.86h2.69v1.36h-2.69v8.28h-2v-8.28h-1.69V137l1.69-.22v-1.59a3.91,3.91,0,0,1,.47-2.47,2.49,2.49,0,0,1,2.22-1,10.83,10.83,0,0,1,2.47.37Z" transform="translate(-98.64 -124.29)"/><path class="cls-3" d="M138.9,146.62a11.72,11.72,0,0,1-3.05-.45l.32-1.34a10.61,10.61,0,0,0,2.39.3c1.34,0,2-.49,2-1.38s-.29-1.06-1.61-1.43c-1.78-.49-3.06-1.08-3.06-2.81s1.28-2.94,3.4-2.94a9.31,9.31,0,0,1,2.79.51l-.28,1.27a11.29,11.29,0,0,0-2.26-.31c-1,0-1.65.43-1.65,1.24,0,2,4.7.72,4.7,4.16C142.63,145.46,141.27,146.62,138.9,146.62Z" transform="translate(-98.64 -124.29)"/><path class="cls-3" d="M149.44,146.42v-.88a6.15,6.15,0,0,1-2.95,1.1c-1.35,0-2.51-1-2.51-3a2.58,2.58,0,0,1,1.26-2.44,8.92,8.92,0,0,1,4.12-.61v-.33c0-1.46,0-2.06-1.73-2.06a16.76,16.76,0,0,0-2.84.33l-.2-1.26a14.37,14.37,0,0,1,3.93-.7,2.6,2.6,0,0,1,2.31.9c.38.55.49,1.18.49,3v6Zm-.08-4.69c-2.69.18-3.38.57-3.38,1.83,0,1,.51,1.51,1.26,1.51a7.56,7.56,0,0,0,2.12-.57Z" transform="translate(-98.64 -124.29)"/><g class="cls-4"><rect class="cls-5" x="15.57" y="15.74" width="0.17" height="1.71"/><rect class="cls-6" x="15.73" y="15.74" width="0.21" height="1.71"/><rect class="cls-7" x="15.94" y="15.74" width="0.21" height="1.71"/><rect class="cls-8" x="16.14" y="15.74" width="0.21" height="1.71"/><rect class="cls-9" x="16.35" y="15.74" width="0.21" height="1.71"/><rect class="cls-10" x="16.55" y="15.74" width="0.21" height="1.71"/><rect class="cls-11" x="16.76" y="15.74" width="0.21" height="1.71"/><rect class="cls-12" x="16.96" y="15.74" width="0.21" height="1.71"/><rect class="cls-13" x="17.17" y="15.74" width="0.21" height="1.71"/><rect class="cls-14" x="17.37" y="15.74" width="0.21" height="1.71"/><rect class="cls-15" x="17.58" y="15.74" width="0.21" height="1.71"/><rect class="cls-16" x="17.79" y="15.74" width="0.21" height="1.71"/><rect class="cls-17" x="17.99" y="15.74" width="0.21" height="1.71"/><rect class="cls-18" x="18.2" y="15.74" width="0.09" height="1.71"/><rect class="cls-19" x="22.05" y="7.52" width="0.05" height="1.71"/><rect class="cls-20" x="22.09" y="7.52" width="0.21" height="1.71"/><rect class="cls-21" x="22.3" y="7.52" width="0.21" height="1.71"/><rect class="cls-22" x="22.5" y="7.52" width="0.21" height="1.71"/><rect class="cls-23" x="22.71" y="7.52" width="0.21" height="1.71"/><rect class="cls-24" x="22.91" y="7.52" width="0.21" height="1.71"/><rect class="cls-25" x="23.12" y="7.52" width="0.21" height="1.71"/><rect class="cls-26" x="23.33" y="7.52" width="0.21" height="1.71"/><rect class="cls-27" x="23.53" y="7.52" width="0.21" height="1.71"/><rect class="cls-28" x="23.74" y="7.52" width="0.21" height="1.71"/><rect class="cls-29" x="23.94" y="7.52" width="0.21" height="1.71"/><rect class="cls-30" x="24.15" y="7.52" width="0.21" height="1.71"/><rect class="cls-31" x="24.35" y="7.52" width="0.21" height="1.71"/><rect class="cls-32" x="24.56" y="7.52" width="0.21" height="1.71"/><path class="cls-33" d="M123.4,133.52v0Z" transform="translate(-98.64 -124.29)"/><rect class="cls-34" x="4.23" y="11.94" width="0.01" height="3.11"/><rect class="cls-35" x="4.24" y="11.94" width="0.21" height="3.11"/><rect class="cls-35" x="4.45" y="11.94" width="0.21" height="3.11"/><rect class="cls-35" x="4.65" y="11.94" width="0.21" height="3.11"/><rect class="cls-36" x="4.86" y="11.94" width="0.21" height="3.11"/><rect class="cls-37" x="5.06" y="11.94" width="0.21" height="3.11"/><rect class="cls-38" x="5.27" y="11.94" width="0.21" height="3.11"/><rect class="cls-38" x="5.47" y="11.94" width="0.21" height="3.11"/><rect class="cls-39" x="5.68" y="11.94" width="0.21" height="3.11"/><rect class="cls-40" x="5.88" y="11.94" width="0.21" height="3.11"/><rect class="cls-41" x="6.09" y="11.94" width="0.21" height="3.11"/><rect class="cls-42" x="6.29" y="11.94" width="0.21" height="3.11"/><rect class="cls-43" x="6.5" y="11.94" width="0.21" height="3.11"/><rect class="cls-44" x="6.71" y="11.94" width="0.21" height="3.11"/><rect class="cls-44" x="6.91" y="11.94" width="0.21" height="3.11"/><rect class="cls-45" x="7.12" y="11.94" width="0.21" height="3.11"/><rect class="cls-46" x="7.32" y="11.94" width="0.21" height="3.11"/><rect class="cls-47" x="7.53" y="11.94" width="0.21" height="3.11"/><rect class="cls-48" x="7.73" y="11.94" width="0.21" height="3.11"/><rect class="cls-49" x="7.94" y="11.94" width="0.21" height="3.11"/><rect class="cls-50" x="8.14" y="11.94" width="0.21" height="3.11"/><rect class="cls-51" x="8.35" y="11.94" width="0.21" height="3.11"/><rect class="cls-52" x="8.55" y="11.94" width="0.21" height="3.11"/><rect class="cls-53" x="8.76" y="11.94" width="0.09" height="3.11"/><rect class="cls-54" x="9.64" y="15.23" width="0.14" height="2.16"/><rect class="cls-55" x="9.78" y="15.23" width="0.21" height="2.16"/><rect class="cls-56" x="9.99" y="15.23" width="0.21" height="2.16"/><rect class="cls-57" x="10.19" y="15.23" width="0.21" height="2.16"/><rect class="cls-58" x="10.4" y="15.23" width="0.21" height="2.16"/><rect class="cls-59" x="10.6" y="15.23" width="0.21" height="2.16"/><rect class="cls-60" x="10.81" y="15.23" width="0.21" height="2.16"/><rect class="cls-61" x="11.01" y="15.23" width="0.21" height="2.16"/><rect class="cls-62" x="11.22" y="15.23" width="0.21" height="2.16"/><rect class="cls-63" x="11.42" y="15.23" width="0.21" height="2.16"/><rect class="cls-64" x="11.63" y="15.23" width="0.21" height="2.16"/><rect class="cls-65" x="11.83" y="15.23" width="0.21" height="2.16"/><rect class="cls-66" x="12.04" y="15.23" width="0.21" height="2.16"/><rect class="cls-67" x="12.25" y="15.23" width="0.21" height="2.16"/><rect class="cls-68" x="12.45" y="15.23" width="0.21" height="2.16"/><rect class="cls-69" x="12.66" y="15.23" width="0.21" height="2.16"/><rect class="cls-70" x="12.86" y="15.23" width="0.16" height="2.16"/><rect class="cls-71" x="0.31" y="7.03" width="0.04" height="3.93"/><rect class="cls-71" x="0.34" y="7.03" width="0.21" height="3.93"/><rect class="cls-71" x="0.55" y="7.03" width="0.21" height="3.93"/><rect class="cls-71" x="0.75" y="7.03" width="0.21" height="3.93"/><rect class="cls-71" x="0.96" y="7.03" width="0.21" height="3.93"/><rect class="cls-71" x="1.17" y="7.03" width="0.21" height="3.93"/><rect class="cls-71" x="1.37" y="7.03" width="0.21" height="3.93"/><rect class="cls-72" x="1.58" y="7.03" width="0.21" height="3.93"/><rect class="cls-72" x="1.78" y="7.03" width="0.21" height="3.93"/><rect class="cls-73" x="1.99" y="7.03" width="0.21" height="3.93"/><rect class="cls-73" x="2.19" y="7.03" width="0.21" height="3.93"/><rect class="cls-74" x="2.4" y="7.03" width="0.21" height="3.93"/><rect class="cls-74" x="2.6" y="7.03" width="0.21" height="3.93"/><rect class="cls-74" x="2.81" y="7.03" width="0.21" height="3.93"/><rect class="cls-74" x="3.01" y="7.03" width="0.21" height="3.93"/><rect class="cls-75" x="3.22" y="7.03" width="0.21" height="3.93"/><rect class="cls-75" x="3.42" y="7.03" width="0.21" height="3.93"/><rect class="cls-75" x="3.63" y="7.03" width="0.21" height="3.93"/><rect class="cls-34" x="3.83" y="7.03" width="0.21" height="3.93"/><rect class="cls-34" x="4.04" y="7.03" width="0.21" height="3.93"/><rect class="cls-35" x="4.24" y="7.03" width="0.21" height="3.93"/><rect class="cls-35" x="4.45" y="7.03" width="0.21" height="3.93"/><rect class="cls-35" x="4.65" y="7.03" width="0.21" height="3.93"/><rect class="cls-36" x="4.86" y="7.03" width="0.21" height="3.93"/><rect class="cls-37" x="5.06" y="7.03" width="0.21" height="3.93"/><rect class="cls-38" x="5.27" y="7.03" width="0.21" height="3.93"/><rect class="cls-38" x="5.47" y="7.03" width="0.21" height="3.93"/><rect class="cls-39" x="5.68" y="7.03" width="0.21" height="3.93"/><rect class="cls-40" x="5.88" y="7.03" width="0.06" height="3.93"/><rect class="cls-76" x="18.6" y="3.89" height="2.35"/><rect class="cls-77" x="18.61" y="3.89" width="0.21" height="2.35"/><rect class="cls-78" x="18.81" y="3.89" width="0.21" height="2.35"/><rect class="cls-79" x="19.02" y="3.89" width="0.21" height="2.35"/><rect class="cls-80" x="19.22" y="3.89" width="0.21" height="2.35"/><rect class="cls-81" x="19.43" y="3.89" width="0.21" height="2.35"/><rect class="cls-82" x="19.63" y="3.89" width="0.21" height="2.35"/><rect class="cls-83" x="19.84" y="3.89" width="0.21" height="2.35"/><rect class="cls-84" x="20.04" y="3.89" width="0.21" height="2.35"/><rect class="cls-85" x="20.25" y="3.89" width="0.21" height="2.35"/><rect class="cls-86" x="20.45" y="3.89" width="0.21" height="2.35"/><rect class="cls-87" x="20.66" y="3.89" width="0.21" height="2.35"/><rect class="cls-88" x="20.86" y="3.89" width="0.21" height="2.35"/><rect class="cls-89" x="21.07" y="3.89" width="0.21" height="2.35"/><rect class="cls-90" x="21.27" y="3.89" width="0.21" height="2.35"/><rect class="cls-91" x="21.48" y="3.89" width="0.21" height="2.35"/><rect class="cls-92" x="21.68" y="3.89" width="0.21" height="2.35"/><rect class="cls-19" x="21.89" y="3.89" width="0.21" height="2.35"/><rect class="cls-20" x="22.09" y="3.89" width="0.21" height="2.35"/><rect class="cls-21" x="22.3" y="3.89" width="0.05" height="2.35"/><rect class="cls-71" y="0.73" width="0.14" height="5.45"/><rect class="cls-71" x="0.14" y="0.73" width="0.21" height="5.45"/><rect class="cls-71" x="0.34" y="0.73" width="0.21" height="5.45"/><rect class="cls-71" x="0.55" y="0.73" width="0.21" height="5.45"/><rect class="cls-71" x="0.75" y="0.73" width="0.21" height="5.45"/><rect class="cls-71" x="0.96" y="0.73" width="0.21" height="5.45"/><rect class="cls-71" x="1.17" y="0.73" width="0.21" height="5.45"/><rect class="cls-71" x="1.37" y="0.73" width="0.21" height="5.45"/><rect class="cls-72" x="1.58" y="0.73" width="0.21" height="5.45"/><rect class="cls-72" x="1.78" y="0.73" width="0.21" height="5.45"/><rect class="cls-73" x="1.99" y="0.73" width="0.21" height="5.45"/><rect class="cls-73" x="2.19" y="0.73" width="0.21" height="5.45"/><rect class="cls-74" x="2.4" y="0.73" width="0.21" height="5.45"/><rect class="cls-74" x="2.6" y="0.73" width="0.21" height="5.45"/><rect class="cls-74" x="2.81" y="0.73" width="0.21" height="5.45"/><rect class="cls-74" x="3.01" y="0.73" width="0.21" height="5.45"/><rect class="cls-75" x="3.22" y="0.73" width="0.21" height="5.45"/><rect class="cls-75" x="3.42" y="0.73" width="0.21" height="5.45"/><rect class="cls-75" x="3.63" y="0.73" width="0.21" height="5.45"/><rect class="cls-34" x="3.83" y="0.73" width="0.21" height="5.45"/><rect class="cls-34" x="4.04" y="0.73" width="0.21" height="5.45"/><rect class="cls-35" x="4.24" y="0.73" width="0.21" height="5.45"/><rect class="cls-35" x="4.45" y="0.73" width="0.21" height="5.45"/><rect class="cls-35" x="4.65" y="0.73" width="0.21" height="5.45"/><rect class="cls-36" x="4.86" y="0.73" width="0.21" height="5.45"/><rect class="cls-37" x="5.06" y="0.73" width="0.21" height="5.45"/><rect class="cls-38" x="5.27" y="0.73" width="0.21" height="5.45"/><rect class="cls-38" x="5.47" y="0.73" width="0.21" height="5.45"/><rect class="cls-39" x="5.68" y="0.73" width="0.21" height="5.45"/><rect class="cls-40" x="5.88" y="0.73" width="0.21" height="5.45"/><rect class="cls-41" x="6.09" y="0.73" width="0.21" height="5.45"/><rect class="cls-42" x="6.29" y="0.73" width="0.21" height="5.45"/><rect class="cls-43" x="6.5" y="0.73" width="0.21" height="5.45"/><rect class="cls-44" x="6.71" y="0.73" width="0.21" height="5.45"/><rect class="cls-44" x="6.91" y="0.73" width="0.21" height="5.45"/><rect class="cls-45" x="7.12" y="0.73" width="0.21" height="5.45"/><rect class="cls-46" x="7.32" y="0.73" width="0.21" height="5.45"/><rect class="cls-47" x="7.53" y="0.73" width="0.19" height="5.45"/><rect class="cls-93" x="13.55" y="0.97" width="0.13" height="3.01"/><rect class="cls-94" x="13.68" y="0.97" width="0.21" height="3.01"/><rect class="cls-95" x="13.89" y="0.97" width="0.21" height="3.01"/><rect class="cls-96" x="14.09" y="0.97" width="0.21" height="3.01"/><rect class="cls-97" x="14.3" y="0.97" width="0.21" height="3.01"/><rect class="cls-98" x="14.5" y="0.97" width="0.21" height="3.01"/><rect class="cls-99" x="14.71" y="0.97" width="0.21" height="3.01"/><rect class="cls-100" x="14.91" y="0.97" width="0.21" height="3.01"/><rect class="cls-101" x="15.12" y="0.97" width="0.21" height="3.01"/><rect class="cls-102" x="15.32" y="0.97" width="0.21" height="3.01"/><rect class="cls-5" x="15.53" y="0.97" width="0.21" height="3.01"/><rect class="cls-6" x="15.73" y="0.97" width="0.21" height="3.01"/><rect class="cls-7" x="15.94" y="0.97" width="0.21" height="3.01"/><rect class="cls-8" x="16.14" y="0.97" width="0.21" height="3.01"/><rect class="cls-9" x="16.35" y="0.97" width="0.21" height="3.01"/><rect class="cls-10" x="16.55" y="0.97" width="0.21" height="3.01"/><rect class="cls-11" x="16.76" y="0.97" width="0.21" height="3.01"/><rect class="cls-12" x="16.96" y="0.97" width="0.21" height="3.01"/><rect class="cls-13" x="17.17" y="0.97" width="0.21" height="3.01"/><rect class="cls-14" x="17.37" y="0.97" width="0.21" height="3.01"/><rect class="cls-15" x="17.58" y="0.97" width="0.21" height="3.01"/><rect class="cls-16" x="17.79" y="0.97" width="0.21" height="3.01"/><rect class="cls-17" x="17.99" y="0.97" width="0.08" height="3.01"/><rect class="cls-47" x="7.72" width="0.01" height="3.68"/><rect class="cls-48" x="7.73" width="0.21" height="3.68"/><rect class="cls-49" x="7.94" width="0.21" height="3.68"/><rect class="cls-50" x="8.14" width="0.21" height="3.68"/><rect class="cls-51" x="8.35" width="0.21" height="3.68"/><rect class="cls-52" x="8.55" width="0.21" height="3.68"/><rect class="cls-53" x="8.76" width="0.21" height="3.68"/><rect class="cls-103" x="8.96" width="0.21" height="3.68"/><rect class="cls-103" x="9.17" width="0.21" height="3.68"/><rect class="cls-104" x="9.37" width="0.21" height="3.68"/><rect class="cls-54" x="9.58" width="0.21" height="3.68"/><rect class="cls-55" x="9.78" width="0.21" height="3.68"/><rect class="cls-56" x="9.99" width="0.21" height="3.68"/><rect class="cls-57" x="10.19" width="0.21" height="3.68"/><rect class="cls-58" x="10.4" width="0.21" height="3.68"/><rect class="cls-59" x="10.6" width="0.21" height="3.68"/><rect class="cls-60" x="10.81" width="0.21" height="3.68"/><rect class="cls-61" x="11.01" width="0.21" height="3.68"/><rect class="cls-62" x="11.22" width="0.21" height="3.68"/><rect class="cls-63" x="11.42" width="0.21" height="3.68"/><rect class="cls-64" x="11.63" width="0.21" height="3.68"/><rect class="cls-65" x="11.83" width="0.21" height="3.68"/><rect class="cls-66" x="12.04" width="0.21" height="3.68"/><rect class="cls-67" x="12.25" width="0.21" height="3.68"/><rect class="cls-68" x="12.45" width="0.21" height="3.68"/><rect class="cls-69" x="12.66" width="0.21" height="3.68"/><rect class="cls-70" x="12.86" width="0.17" height="3.68"/></g><polygon class="cls-105" points="64.78 22.11 64.78 15.79 55.26 15.79 55.26 22.11 64.78 22.11 64.78 22.11"/><polygon class="cls-106" points="60.01 16.43 60.11 16.71 60.41 16.71 60.17 16.89 60.26 17.17 60.02 17.01 59.77 17.18 59.86 16.89 59.62 16.72 59.92 16.71 60.01 16.43 60.01 16.43"/><polygon class="cls-106" points="60.05 20.64 60.14 20.92 60.44 20.92 60.21 21.1 60.29 21.39 60.05 21.22 59.81 21.39 59.89 21.1 59.65 20.93 59.95 20.92 60.05 20.64 60.05 20.64"/><polygon class="cls-106" points="61.06 16.69 61.16 16.97 61.45 16.98 61.22 17.16 61.31 17.44 61.06 17.27 60.82 17.44 60.9 17.16 60.67 16.98 60.96 16.97 61.06 16.69 61.06 16.69"/><polygon class="cls-106" points="61.09 20.36 61.18 20.64 61.48 20.64 61.24 20.82 61.33 21.11 61.09 20.94 60.85 21.11 60.93 20.83 60.69 20.65 60.99 20.64 61.09 20.36 61.09 20.36"/><polygon class="cls-106" points="58.98 16.71 59.08 16.99 59.37 16.99 59.14 17.17 59.22 17.45 58.98 17.29 58.74 17.46 58.82 17.18 58.59 17 58.88 16.99 58.98 16.71 58.98 16.71"/><polygon class="cls-106" points="59 20.36 59.11 20.64 59.4 20.64 59.17 20.82 59.25 21.11 59.01 20.94 58.77 21.11 58.85 20.83 58.62 20.65 58.91 20.64 59 20.36 59 20.36"/><polygon class="cls-106" points="61.85 17.45 61.95 17.73 62.24 17.73 62.01 17.91 62.09 18.2 61.85 18.03 61.61 18.2 61.69 17.91 61.45 17.74 61.75 17.73 61.85 17.45 61.85 17.45"/><polygon class="cls-106" points="61.86 19.59 61.96 19.86 62.26 19.87 62.02 20.05 62.11 20.33 61.87 20.16 61.63 20.33 61.71 20.05 61.47 19.87 61.77 19.86 61.86 19.59 61.86 19.59"/><polygon class="cls-106" points="58.22 17.48 58.32 17.76 58.62 17.76 58.38 17.94 58.47 18.22 58.23 18.06 57.99 18.23 58.07 17.94 57.83 17.77 58.13 17.76 58.22 17.48 58.22 17.48"/><polygon class="cls-106" points="58.24 19.59 58.34 19.87 58.63 19.88 58.4 20.06 58.49 20.34 58.24 20.17 58 20.34 58.09 20.06 57.85 19.88 58.14 19.87 58.24 19.59 58.24 19.59"/><polygon class="cls-106" points="62.16 18.51 62.26 18.79 62.55 18.79 62.32 18.97 62.41 19.25 62.16 19.08 61.92 19.25 62 18.97 61.77 18.79 62.06 18.79 62.16 18.51 62.16 18.51"/><polygon class="cls-106" points="57.95 18.54 58.05 18.82 58.34 18.82 58.11 19 58.2 19.28 57.95 19.12 57.71 19.29 57.79 19 57.56 18.83 57.85 18.82 57.95 18.54 57.95 18.54"/><path class="cls-107" d="M175.73,154.5a.25.25,0,0,1-.25-.25v-18a.25.25,0,0,1,.5,0v18A.25.25,0,0,1,175.73,154.5Z" transform="translate(-98.64 -124.29)"/></svg>